%TF.GenerationSoftware,KiCad,Pcbnew,9.0.1-1.fc42*%
%TF.CreationDate,2025-04-27T23:47:53+08:00*%
%TF.ProjectId,discharge & time_delayforDCDC,64697363-6861-4726-9765-20262074696d,rev?*%
%TF.SameCoordinates,Original*%
%TF.FileFunction,Legend,Bot*%
%TF.FilePolarity,Positive*%
%FSLAX46Y46*%
G04 Gerber Fmt 4.6, Leading zero omitted, Abs format (unit mm)*
G04 Created by KiCad (PCBNEW 9.0.1-1.fc42) date 2025-04-27 23:47:53*
%MOMM*%
%LPD*%
G01*
G04 APERTURE LIST*
%ADD10C,0.100000*%
%ADD11C,0.375000*%
G04 APERTURE END LIST*
D10*
X146750000Y-111250000D02*
X148500000Y-113000000D01*
X162250000Y-113000000D01*
X166750000Y-117500000D01*
X166750000Y-119500000D01*
X166750000Y-128000000D01*
X143500000Y-128000000D01*
X143500000Y-94250000D01*
X146750000Y-94250000D01*
X146750000Y-111250000D01*
X171000000Y-101500000D02*
X169000000Y-101500000D01*
X169000000Y-93750000D01*
X156500000Y-81250000D01*
X135000000Y-81250000D01*
X127249361Y-89000639D01*
X127257978Y-119250000D01*
X115500000Y-119250000D01*
X115500000Y-78500000D01*
X171000000Y-78500000D01*
X171000000Y-101500000D01*
D11*
X170467575Y-87363357D02*
X168753290Y-87363357D01*
X169610432Y-90363357D02*
X169610432Y-87363357D01*
X167896147Y-90220500D02*
X167467576Y-90363357D01*
X167467576Y-90363357D02*
X166753290Y-90363357D01*
X166753290Y-90363357D02*
X166467576Y-90220500D01*
X166467576Y-90220500D02*
X166324718Y-90077642D01*
X166324718Y-90077642D02*
X166181861Y-89791928D01*
X166181861Y-89791928D02*
X166181861Y-89506214D01*
X166181861Y-89506214D02*
X166324718Y-89220500D01*
X166324718Y-89220500D02*
X166467576Y-89077642D01*
X166467576Y-89077642D02*
X166753290Y-88934785D01*
X166753290Y-88934785D02*
X167324718Y-88791928D01*
X167324718Y-88791928D02*
X167610433Y-88649071D01*
X167610433Y-88649071D02*
X167753290Y-88506214D01*
X167753290Y-88506214D02*
X167896147Y-88220500D01*
X167896147Y-88220500D02*
X167896147Y-87934785D01*
X167896147Y-87934785D02*
X167753290Y-87649071D01*
X167753290Y-87649071D02*
X167610433Y-87506214D01*
X167610433Y-87506214D02*
X167324718Y-87363357D01*
X167324718Y-87363357D02*
X166610433Y-87363357D01*
X166610433Y-87363357D02*
X166181861Y-87506214D01*
X160217575Y-119256214D02*
X160503290Y-119113357D01*
X160503290Y-119113357D02*
X160931861Y-119113357D01*
X160931861Y-119113357D02*
X161360432Y-119256214D01*
X161360432Y-119256214D02*
X161646147Y-119541928D01*
X161646147Y-119541928D02*
X161789004Y-119827642D01*
X161789004Y-119827642D02*
X161931861Y-120399071D01*
X161931861Y-120399071D02*
X161931861Y-120827642D01*
X161931861Y-120827642D02*
X161789004Y-121399071D01*
X161789004Y-121399071D02*
X161646147Y-121684785D01*
X161646147Y-121684785D02*
X161360432Y-121970500D01*
X161360432Y-121970500D02*
X160931861Y-122113357D01*
X160931861Y-122113357D02*
X160646147Y-122113357D01*
X160646147Y-122113357D02*
X160217575Y-121970500D01*
X160217575Y-121970500D02*
X160074718Y-121827642D01*
X160074718Y-121827642D02*
X160074718Y-120827642D01*
X160074718Y-120827642D02*
X160646147Y-120827642D01*
X157360432Y-122113357D02*
X158789004Y-122113357D01*
X158789004Y-122113357D02*
X158789004Y-119113357D01*
X156789004Y-119113357D02*
X155789004Y-122113357D01*
X155789004Y-122113357D02*
X154789004Y-119113357D01*
X123415775Y-94660157D02*
X121701490Y-94660157D01*
X122558632Y-97660157D02*
X122558632Y-94660157D01*
X120844347Y-97517300D02*
X120415776Y-97660157D01*
X120415776Y-97660157D02*
X119701490Y-97660157D01*
X119701490Y-97660157D02*
X119415776Y-97517300D01*
X119415776Y-97517300D02*
X119272918Y-97374442D01*
X119272918Y-97374442D02*
X119130061Y-97088728D01*
X119130061Y-97088728D02*
X119130061Y-96803014D01*
X119130061Y-96803014D02*
X119272918Y-96517300D01*
X119272918Y-96517300D02*
X119415776Y-96374442D01*
X119415776Y-96374442D02*
X119701490Y-96231585D01*
X119701490Y-96231585D02*
X120272918Y-96088728D01*
X120272918Y-96088728D02*
X120558633Y-95945871D01*
X120558633Y-95945871D02*
X120701490Y-95803014D01*
X120701490Y-95803014D02*
X120844347Y-95517300D01*
X120844347Y-95517300D02*
X120844347Y-95231585D01*
X120844347Y-95231585D02*
X120701490Y-94945871D01*
X120701490Y-94945871D02*
X120558633Y-94803014D01*
X120558633Y-94803014D02*
X120272918Y-94660157D01*
X120272918Y-94660157D02*
X119558633Y-94660157D01*
X119558633Y-94660157D02*
X119130061Y-94803014D01*
D10*
X136532879Y-110788932D02*
X136588570Y-110971084D01*
X136588570Y-110971084D02*
X136570878Y-111076084D01*
X136570878Y-111076084D02*
X136539262Y-111135545D01*
X136539262Y-111135545D02*
X136430493Y-111268390D01*
X136430493Y-111268390D02*
X136262263Y-111369619D01*
X136262263Y-111369619D02*
X135897958Y-111481001D01*
X135897958Y-111481001D02*
X135792958Y-111463309D01*
X135792958Y-111463309D02*
X135733497Y-111431693D01*
X135733497Y-111431693D02*
X135660113Y-111354540D01*
X135660113Y-111354540D02*
X135604422Y-111172387D01*
X135604422Y-111172387D02*
X135622115Y-111067387D01*
X135622115Y-111067387D02*
X135653730Y-111007926D01*
X135653730Y-111007926D02*
X135730884Y-110934543D01*
X135730884Y-110934543D02*
X135958575Y-110864929D01*
X135958575Y-110864929D02*
X136063574Y-110882621D01*
X136063574Y-110882621D02*
X136123035Y-110914237D01*
X136123035Y-110914237D02*
X136196419Y-110991390D01*
X136196419Y-110991390D02*
X136252110Y-111173543D01*
X136252110Y-111173543D02*
X136234418Y-111278542D01*
X136234418Y-111278542D02*
X136202802Y-111338003D01*
X136202802Y-111338003D02*
X136125649Y-111411387D01*
X135514502Y-110552544D02*
X135455041Y-110520929D01*
X135455041Y-110520929D02*
X135423426Y-110580390D01*
X135423426Y-110580390D02*
X135482887Y-110612005D01*
X135482887Y-110612005D02*
X135514502Y-110552544D01*
X135514502Y-110552544D02*
X135423426Y-110580390D01*
X136115196Y-109422785D02*
X136170887Y-109604938D01*
X136170887Y-109604938D02*
X136153194Y-109709937D01*
X136153194Y-109709937D02*
X136121579Y-109769398D01*
X136121579Y-109769398D02*
X136012810Y-109902243D01*
X136012810Y-109902243D02*
X135844580Y-110003473D01*
X135844580Y-110003473D02*
X135480274Y-110114855D01*
X135480274Y-110114855D02*
X135375275Y-110097162D01*
X135375275Y-110097162D02*
X135315814Y-110065547D01*
X135315814Y-110065547D02*
X135242430Y-109988393D01*
X135242430Y-109988393D02*
X135186739Y-109806241D01*
X135186739Y-109806241D02*
X135204431Y-109701241D01*
X135204431Y-109701241D02*
X135236047Y-109641780D01*
X135236047Y-109641780D02*
X135313200Y-109568396D01*
X135313200Y-109568396D02*
X135540891Y-109498782D01*
X135540891Y-109498782D02*
X135645891Y-109516475D01*
X135645891Y-109516475D02*
X135705352Y-109548091D01*
X135705352Y-109548091D02*
X135778735Y-109625244D01*
X135778735Y-109625244D02*
X135834427Y-109807397D01*
X135834427Y-109807397D02*
X135816734Y-109912396D01*
X135816734Y-109912396D02*
X135785119Y-109971857D01*
X135785119Y-109971857D02*
X135707965Y-110045241D01*
X135989890Y-109012941D02*
X135794971Y-108375406D01*
X135794971Y-108375406D02*
X134963974Y-109077629D01*
X134504521Y-107574867D02*
X135142057Y-107379948D01*
X135050980Y-107407794D02*
X135082596Y-107348333D01*
X135082596Y-107348333D02*
X135100288Y-107243334D01*
X135100288Y-107243334D02*
X135058520Y-107106719D01*
X135058520Y-107106719D02*
X134985136Y-107029565D01*
X134985136Y-107029565D02*
X134880137Y-107011873D01*
X134880137Y-107011873D02*
X134379216Y-107165023D01*
X134880137Y-107011873D02*
X134957290Y-106938489D01*
X134957290Y-106938489D02*
X134974983Y-106833490D01*
X134974983Y-106833490D02*
X134933215Y-106696875D01*
X134933215Y-106696875D02*
X134859831Y-106619721D01*
X134859831Y-106619721D02*
X134754832Y-106602029D01*
X134754832Y-106602029D02*
X134253911Y-106755179D01*
X134114683Y-106299798D02*
X134752218Y-106104878D01*
X134661142Y-106132724D02*
X134692757Y-106073263D01*
X134692757Y-106073263D02*
X134710450Y-105968264D01*
X134710450Y-105968264D02*
X134668682Y-105831649D01*
X134668682Y-105831649D02*
X134595298Y-105754495D01*
X134595298Y-105754495D02*
X134490299Y-105736803D01*
X134490299Y-105736803D02*
X133989378Y-105889954D01*
X134490299Y-105736803D02*
X134567452Y-105663419D01*
X134567452Y-105663419D02*
X134585145Y-105558420D01*
X134585145Y-105558420D02*
X134543376Y-105421805D01*
X134543376Y-105421805D02*
X134469993Y-105344652D01*
X134469993Y-105344652D02*
X134364993Y-105326959D01*
X134364993Y-105326959D02*
X133864073Y-105480110D01*
X133939950Y-112228863D02*
X135703821Y-111689580D01*
X131990851Y-105853811D02*
X133754722Y-105314528D01*
X135143026Y-111861036D02*
X133193927Y-105485984D01*
X135143026Y-111861036D02*
X134252865Y-110955214D01*
X135143026Y-111861036D02*
X135374456Y-110612301D01*
X133193927Y-105485984D02*
X134084088Y-106391806D01*
X133193927Y-105485984D02*
X132962497Y-106734719D01*
X127320129Y-104756069D02*
X126973456Y-105325509D01*
X126973456Y-105325509D02*
X128050478Y-105479449D01*
X127548170Y-106121388D02*
X127564082Y-106186825D01*
X127564082Y-106186825D02*
X127629519Y-106170913D01*
X127629519Y-106170913D02*
X127613607Y-106105476D01*
X127613607Y-106105476D02*
X127548170Y-106121388D01*
X127548170Y-106121388D02*
X127629519Y-106170913D01*
X126304874Y-106423716D02*
X126403923Y-106261018D01*
X126403923Y-106261018D02*
X126494122Y-106204432D01*
X126494122Y-106204432D02*
X126559559Y-106188520D01*
X126559559Y-106188520D02*
X126731106Y-106181458D01*
X126731106Y-106181458D02*
X126918566Y-106239833D01*
X126918566Y-106239833D02*
X127243961Y-106437932D01*
X127243961Y-106437932D02*
X127300547Y-106528131D01*
X127300547Y-106528131D02*
X127316459Y-106593568D01*
X127316459Y-106593568D02*
X127307609Y-106699679D01*
X127307609Y-106699679D02*
X127208559Y-106862376D01*
X127208559Y-106862376D02*
X127118360Y-106918962D01*
X127118360Y-106918962D02*
X127052924Y-106934874D01*
X127052924Y-106934874D02*
X126946813Y-106926024D01*
X126946813Y-106926024D02*
X126743441Y-106802212D01*
X126743441Y-106802212D02*
X126686855Y-106712013D01*
X126686855Y-106712013D02*
X126670943Y-106646577D01*
X126670943Y-106646577D02*
X126679793Y-106540466D01*
X126679793Y-106540466D02*
X126778842Y-106377768D01*
X126778842Y-106377768D02*
X126869041Y-106321182D01*
X126869041Y-106321182D02*
X126934478Y-106305270D01*
X126934478Y-106305270D02*
X127040589Y-106314120D01*
X125784865Y-107277877D02*
X126032488Y-106871133D01*
X126032488Y-106871133D02*
X126463994Y-107078082D01*
X126463994Y-107078082D02*
X126398557Y-107093994D01*
X126398557Y-107093994D02*
X126308358Y-107150581D01*
X126308358Y-107150581D02*
X126184547Y-107353952D01*
X126184547Y-107353952D02*
X126175696Y-107460063D01*
X126175696Y-107460063D02*
X126191608Y-107525500D01*
X126191608Y-107525500D02*
X126248195Y-107615699D01*
X126248195Y-107615699D02*
X126451566Y-107739511D01*
X126451566Y-107739511D02*
X126557677Y-107748361D01*
X126557677Y-107748361D02*
X126623114Y-107732449D01*
X126623114Y-107732449D02*
X126713313Y-107675862D01*
X126713313Y-107675862D02*
X126837125Y-107472491D01*
X126837125Y-107472491D02*
X126845975Y-107366380D01*
X126845975Y-107366380D02*
X126830063Y-107300943D01*
X125995205Y-108855418D02*
X125425765Y-108508746D01*
X125507113Y-108558270D02*
X125441677Y-108574182D01*
X125441677Y-108574182D02*
X125351478Y-108630769D01*
X125351478Y-108630769D02*
X125277191Y-108752792D01*
X125277191Y-108752792D02*
X125268340Y-108858903D01*
X125268340Y-108858903D02*
X125324927Y-108949102D01*
X125324927Y-108949102D02*
X125772344Y-109221487D01*
X125324927Y-108949102D02*
X125218816Y-108940251D01*
X125218816Y-108940251D02*
X125128617Y-108996838D01*
X125128617Y-108996838D02*
X125054330Y-109118861D01*
X125054330Y-109118861D02*
X125045480Y-109224972D01*
X125045480Y-109224972D02*
X125102066Y-109315171D01*
X125102066Y-109315171D02*
X125549483Y-109587556D01*
X125301860Y-109994299D02*
X124732420Y-109647627D01*
X124813768Y-109697151D02*
X124748332Y-109713063D01*
X124748332Y-109713063D02*
X124658133Y-109769650D01*
X124658133Y-109769650D02*
X124583846Y-109891673D01*
X124583846Y-109891673D02*
X124574996Y-109997784D01*
X124574996Y-109997784D02*
X124631582Y-110087983D01*
X124631582Y-110087983D02*
X125078999Y-110360368D01*
X124631582Y-110087983D02*
X124525471Y-110079132D01*
X124525471Y-110079132D02*
X124435272Y-110135719D01*
X124435272Y-110135719D02*
X124360985Y-110257742D01*
X124360985Y-110257742D02*
X124352135Y-110363852D01*
X124352135Y-110363852D02*
X124408721Y-110454051D01*
X124408721Y-110454051D02*
X124856139Y-110726437D01*
X130060220Y-105739996D02*
X128526175Y-104806077D01*
X126084716Y-112270116D02*
X124550671Y-111336197D01*
X129027072Y-105111020D02*
X125051568Y-111641140D01*
X129027072Y-105111020D02*
X128942178Y-106378179D01*
X129027072Y-105111020D02*
X127940382Y-105768291D01*
X125051568Y-111641140D02*
X125136462Y-110373981D01*
X125051568Y-111641140D02*
X126138258Y-110983869D01*
X164786345Y-103168714D02*
X165075602Y-102675905D01*
X164930973Y-102922309D02*
X164068558Y-102416109D01*
X164068558Y-102416109D02*
X164239970Y-102406288D01*
X164239970Y-102406288D02*
X164370314Y-102372363D01*
X164370314Y-102372363D02*
X164459591Y-102314333D01*
X163755195Y-102949985D02*
X163441833Y-103483862D01*
X163441833Y-103483862D02*
X163939106Y-103389228D01*
X163939106Y-103389228D02*
X163866792Y-103512430D01*
X163866792Y-103512430D02*
X163859650Y-103618670D01*
X163859650Y-103618670D02*
X163876612Y-103683842D01*
X163876612Y-103683842D02*
X163934642Y-103773119D01*
X163934642Y-103773119D02*
X164139979Y-103893643D01*
X164139979Y-103893643D02*
X164246219Y-103900785D01*
X164246219Y-103900785D02*
X164311391Y-103883823D01*
X164311391Y-103883823D02*
X164400668Y-103825793D01*
X164400668Y-103825793D02*
X164545297Y-103579388D01*
X164545297Y-103579388D02*
X164552439Y-103473148D01*
X164552439Y-103473148D02*
X164535476Y-103407976D01*
X164005171Y-104311459D02*
X164022134Y-104376632D01*
X164022134Y-104376632D02*
X164087306Y-104359669D01*
X164087306Y-104359669D02*
X164070343Y-104294497D01*
X164070343Y-104294497D02*
X164005171Y-104311459D01*
X164005171Y-104311459D02*
X164087306Y-104359669D01*
X163032052Y-104182007D02*
X162718690Y-104715884D01*
X162718690Y-104715884D02*
X163215963Y-104621250D01*
X163215963Y-104621250D02*
X163143648Y-104744452D01*
X163143648Y-104744452D02*
X163136506Y-104850692D01*
X163136506Y-104850692D02*
X163153469Y-104915864D01*
X163153469Y-104915864D02*
X163211499Y-105005141D01*
X163211499Y-105005141D02*
X163416836Y-105125665D01*
X163416836Y-105125665D02*
X163523075Y-105132807D01*
X163523075Y-105132807D02*
X163588248Y-105115845D01*
X163588248Y-105115845D02*
X163677525Y-105057815D01*
X163677525Y-105057815D02*
X163822153Y-104811410D01*
X163822153Y-104811410D02*
X163829296Y-104705171D01*
X163829296Y-104705171D02*
X163812333Y-104639998D01*
X162549956Y-105003356D02*
X162236594Y-105537232D01*
X162236594Y-105537232D02*
X162733867Y-105442599D01*
X162733867Y-105442599D02*
X162661552Y-105565801D01*
X162661552Y-105565801D02*
X162654410Y-105672041D01*
X162654410Y-105672041D02*
X162671373Y-105737213D01*
X162671373Y-105737213D02*
X162729403Y-105826490D01*
X162729403Y-105826490D02*
X162934740Y-105947014D01*
X162934740Y-105947014D02*
X163040980Y-105954156D01*
X163040980Y-105954156D02*
X163106152Y-105937193D01*
X163106152Y-105937193D02*
X163195429Y-105879163D01*
X163195429Y-105879163D02*
X163340058Y-105632759D01*
X163340058Y-105632759D02*
X163347200Y-105526519D01*
X163347200Y-105526519D02*
X163330237Y-105461347D01*
X162496390Y-107070119D02*
X161921446Y-106732651D01*
X162003581Y-106780861D02*
X161938409Y-106797824D01*
X161938409Y-106797824D02*
X161849132Y-106855854D01*
X161849132Y-106855854D02*
X161776817Y-106979056D01*
X161776817Y-106979056D02*
X161769675Y-107085296D01*
X161769675Y-107085296D02*
X161827705Y-107174573D01*
X161827705Y-107174573D02*
X162279447Y-107439725D01*
X161827705Y-107174573D02*
X161721465Y-107167430D01*
X161721465Y-107167430D02*
X161632189Y-107225461D01*
X161632189Y-107225461D02*
X161559874Y-107348663D01*
X161559874Y-107348663D02*
X161552732Y-107454902D01*
X161552732Y-107454902D02*
X161610762Y-107544179D01*
X161610762Y-107544179D02*
X162062504Y-107809332D01*
X161821456Y-108220006D02*
X161246512Y-107882539D01*
X161328647Y-107930748D02*
X161263475Y-107947711D01*
X161263475Y-107947711D02*
X161174198Y-108005741D01*
X161174198Y-108005741D02*
X161101883Y-108128943D01*
X161101883Y-108128943D02*
X161094741Y-108235183D01*
X161094741Y-108235183D02*
X161152771Y-108324460D01*
X161152771Y-108324460D02*
X161604513Y-108589613D01*
X161152771Y-108324460D02*
X161046532Y-108317318D01*
X161046532Y-108317318D02*
X160957255Y-108375348D01*
X160957255Y-108375348D02*
X160884940Y-108498550D01*
X160884940Y-108498550D02*
X160877798Y-108604790D01*
X160877798Y-108604790D02*
X160935828Y-108694067D01*
X160935828Y-108694067D02*
X161387570Y-108959219D01*
X168568792Y-101246900D02*
X166642968Y-100116525D01*
X161818792Y-112746900D02*
X159892968Y-111616525D01*
X167148706Y-100413371D02*
X160398706Y-111913371D01*
X167148706Y-100413371D02*
X167084208Y-101681732D01*
X167148706Y-100413371D02*
X166072731Y-101088039D01*
X160398706Y-111913371D02*
X160463204Y-110645010D01*
X160398706Y-111913371D02*
X161474681Y-111238703D01*
X138470237Y-101607419D02*
X139041665Y-101607419D01*
X138755951Y-101607419D02*
X138755951Y-100607419D01*
X138755951Y-100607419D02*
X138851189Y-100750276D01*
X138851189Y-100750276D02*
X138946427Y-100845514D01*
X138946427Y-100845514D02*
X139041665Y-100893133D01*
X137613094Y-100607419D02*
X137803570Y-100607419D01*
X137803570Y-100607419D02*
X137898808Y-100655038D01*
X137898808Y-100655038D02*
X137946427Y-100702657D01*
X137946427Y-100702657D02*
X138041665Y-100845514D01*
X138041665Y-100845514D02*
X138089284Y-101035990D01*
X138089284Y-101035990D02*
X138089284Y-101416942D01*
X138089284Y-101416942D02*
X138041665Y-101512180D01*
X138041665Y-101512180D02*
X137994046Y-101559800D01*
X137994046Y-101559800D02*
X137898808Y-101607419D01*
X137898808Y-101607419D02*
X137708332Y-101607419D01*
X137708332Y-101607419D02*
X137613094Y-101559800D01*
X137613094Y-101559800D02*
X137565475Y-101512180D01*
X137565475Y-101512180D02*
X137517856Y-101416942D01*
X137517856Y-101416942D02*
X137517856Y-101178847D01*
X137517856Y-101178847D02*
X137565475Y-101083609D01*
X137565475Y-101083609D02*
X137613094Y-101035990D01*
X137613094Y-101035990D02*
X137708332Y-100988371D01*
X137708332Y-100988371D02*
X137898808Y-100988371D01*
X137898808Y-100988371D02*
X137994046Y-101035990D01*
X137994046Y-101035990D02*
X138041665Y-101083609D01*
X138041665Y-101083609D02*
X138089284Y-101178847D01*
X137089284Y-101512180D02*
X137041665Y-101559800D01*
X137041665Y-101559800D02*
X137089284Y-101607419D01*
X137089284Y-101607419D02*
X137136903Y-101559800D01*
X137136903Y-101559800D02*
X137089284Y-101512180D01*
X137089284Y-101512180D02*
X137089284Y-101607419D01*
X136660713Y-100702657D02*
X136613094Y-100655038D01*
X136613094Y-100655038D02*
X136517856Y-100607419D01*
X136517856Y-100607419D02*
X136279761Y-100607419D01*
X136279761Y-100607419D02*
X136184523Y-100655038D01*
X136184523Y-100655038D02*
X136136904Y-100702657D01*
X136136904Y-100702657D02*
X136089285Y-100797895D01*
X136089285Y-100797895D02*
X136089285Y-100893133D01*
X136089285Y-100893133D02*
X136136904Y-101035990D01*
X136136904Y-101035990D02*
X136708332Y-101607419D01*
X136708332Y-101607419D02*
X136089285Y-101607419D01*
X135184523Y-100607419D02*
X135660713Y-100607419D01*
X135660713Y-100607419D02*
X135708332Y-101083609D01*
X135708332Y-101083609D02*
X135660713Y-101035990D01*
X135660713Y-101035990D02*
X135565475Y-100988371D01*
X135565475Y-100988371D02*
X135327380Y-100988371D01*
X135327380Y-100988371D02*
X135232142Y-101035990D01*
X135232142Y-101035990D02*
X135184523Y-101083609D01*
X135184523Y-101083609D02*
X135136904Y-101178847D01*
X135136904Y-101178847D02*
X135136904Y-101416942D01*
X135136904Y-101416942D02*
X135184523Y-101512180D01*
X135184523Y-101512180D02*
X135232142Y-101559800D01*
X135232142Y-101559800D02*
X135327380Y-101607419D01*
X135327380Y-101607419D02*
X135565475Y-101607419D01*
X135565475Y-101607419D02*
X135660713Y-101559800D01*
X135660713Y-101559800D02*
X135708332Y-101512180D01*
X133946427Y-101607419D02*
X133946427Y-100940752D01*
X133946427Y-101035990D02*
X133898808Y-100988371D01*
X133898808Y-100988371D02*
X133803570Y-100940752D01*
X133803570Y-100940752D02*
X133660713Y-100940752D01*
X133660713Y-100940752D02*
X133565475Y-100988371D01*
X133565475Y-100988371D02*
X133517856Y-101083609D01*
X133517856Y-101083609D02*
X133517856Y-101607419D01*
X133517856Y-101083609D02*
X133470237Y-100988371D01*
X133470237Y-100988371D02*
X133374999Y-100940752D01*
X133374999Y-100940752D02*
X133232142Y-100940752D01*
X133232142Y-100940752D02*
X133136903Y-100988371D01*
X133136903Y-100988371D02*
X133089284Y-101083609D01*
X133089284Y-101083609D02*
X133089284Y-101607419D01*
X132613094Y-101607419D02*
X132613094Y-100940752D01*
X132613094Y-101035990D02*
X132565475Y-100988371D01*
X132565475Y-100988371D02*
X132470237Y-100940752D01*
X132470237Y-100940752D02*
X132327380Y-100940752D01*
X132327380Y-100940752D02*
X132232142Y-100988371D01*
X132232142Y-100988371D02*
X132184523Y-101083609D01*
X132184523Y-101083609D02*
X132184523Y-101607419D01*
X132184523Y-101083609D02*
X132136904Y-100988371D01*
X132136904Y-100988371D02*
X132041666Y-100940752D01*
X132041666Y-100940752D02*
X131898809Y-100940752D01*
X131898809Y-100940752D02*
X131803570Y-100988371D01*
X131803570Y-100988371D02*
X131755951Y-101083609D01*
X131755951Y-101083609D02*
X131755951Y-101607419D01*
X127250000Y-102250000D02*
X127250000Y-102250000D01*
X143500000Y-101663580D02*
X143500000Y-102250000D01*
X127250000Y-102250000D02*
X143500000Y-102250000D01*
X127250000Y-102250000D02*
X128376504Y-101663579D01*
X127250000Y-102250000D02*
X128376504Y-102836421D01*
X143500000Y-102250000D02*
X142373496Y-102836421D01*
X143500000Y-102250000D02*
X142373496Y-101663579D01*
X144607419Y-85845238D02*
X144607419Y-85273810D01*
X144607419Y-85559524D02*
X143607419Y-85559524D01*
X143607419Y-85559524D02*
X143750276Y-85464286D01*
X143750276Y-85464286D02*
X143845514Y-85369048D01*
X143845514Y-85369048D02*
X143893133Y-85273810D01*
X143607419Y-86178572D02*
X143607419Y-86797619D01*
X143607419Y-86797619D02*
X143988371Y-86464286D01*
X143988371Y-86464286D02*
X143988371Y-86607143D01*
X143988371Y-86607143D02*
X144035990Y-86702381D01*
X144035990Y-86702381D02*
X144083609Y-86750000D01*
X144083609Y-86750000D02*
X144178847Y-86797619D01*
X144178847Y-86797619D02*
X144416942Y-86797619D01*
X144416942Y-86797619D02*
X144512180Y-86750000D01*
X144512180Y-86750000D02*
X144559800Y-86702381D01*
X144559800Y-86702381D02*
X144607419Y-86607143D01*
X144607419Y-86607143D02*
X144607419Y-86321429D01*
X144607419Y-86321429D02*
X144559800Y-86226191D01*
X144559800Y-86226191D02*
X144512180Y-86178572D01*
X144607419Y-87988096D02*
X143940752Y-87988096D01*
X144035990Y-87988096D02*
X143988371Y-88035715D01*
X143988371Y-88035715D02*
X143940752Y-88130953D01*
X143940752Y-88130953D02*
X143940752Y-88273810D01*
X143940752Y-88273810D02*
X143988371Y-88369048D01*
X143988371Y-88369048D02*
X144083609Y-88416667D01*
X144083609Y-88416667D02*
X144607419Y-88416667D01*
X144083609Y-88416667D02*
X143988371Y-88464286D01*
X143988371Y-88464286D02*
X143940752Y-88559524D01*
X143940752Y-88559524D02*
X143940752Y-88702381D01*
X143940752Y-88702381D02*
X143988371Y-88797620D01*
X143988371Y-88797620D02*
X144083609Y-88845239D01*
X144083609Y-88845239D02*
X144607419Y-88845239D01*
X144607419Y-89321429D02*
X143940752Y-89321429D01*
X144035990Y-89321429D02*
X143988371Y-89369048D01*
X143988371Y-89369048D02*
X143940752Y-89464286D01*
X143940752Y-89464286D02*
X143940752Y-89607143D01*
X143940752Y-89607143D02*
X143988371Y-89702381D01*
X143988371Y-89702381D02*
X144083609Y-89750000D01*
X144083609Y-89750000D02*
X144607419Y-89750000D01*
X144083609Y-89750000D02*
X143988371Y-89797619D01*
X143988371Y-89797619D02*
X143940752Y-89892857D01*
X143940752Y-89892857D02*
X143940752Y-90035714D01*
X143940752Y-90035714D02*
X143988371Y-90130953D01*
X143988371Y-90130953D02*
X144083609Y-90178572D01*
X144083609Y-90178572D02*
X144607419Y-90178572D01*
X145250000Y-94250000D02*
X145250000Y-94250000D01*
X145250000Y-81250000D02*
X145250000Y-81250000D01*
X145250000Y-94250000D02*
X145250000Y-81250000D01*
X145250000Y-94250000D02*
X144663579Y-93123496D01*
X145250000Y-94250000D02*
X145836421Y-93123496D01*
X145250000Y-81250000D02*
X145836421Y-82376504D01*
X145250000Y-81250000D02*
X144663579Y-82376504D01*
M02*
