%TF.GenerationSoftware,KiCad,Pcbnew,9.0.1-1.fc42*%
%TF.CreationDate,2025-05-01T02:21:56+08:00*%
%TF.ProjectId,discharge & time_delayforDCDC,64697363-6861-4726-9765-20262074696d,rev?*%
%TF.SameCoordinates,Original*%
%TF.FileFunction,Copper,L2,Bot*%
%TF.FilePolarity,Positive*%
%FSLAX46Y46*%
G04 Gerber Fmt 4.6, Leading zero omitted, Abs format (unit mm)*
G04 Created by KiCad (PCBNEW 9.0.1-1.fc42) date 2025-05-01 02:21:56*
%MOMM*%
%LPD*%
G01*
G04 APERTURE LIST*
%TA.AperFunction,ComponentPad*%
%ADD10C,1.650000*%
%TD*%
%TA.AperFunction,ComponentPad*%
%ADD11R,1.520000X1.520000*%
%TD*%
%TA.AperFunction,ComponentPad*%
%ADD12C,1.520000*%
%TD*%
%TA.AperFunction,ComponentPad*%
%ADD13C,1.440000*%
%TD*%
%TA.AperFunction,ComponentPad*%
%ADD14R,2.300000X2.300000*%
%TD*%
%TA.AperFunction,ComponentPad*%
%ADD15C,2.300000*%
%TD*%
%TA.AperFunction,ComponentPad*%
%ADD16C,1.500000*%
%TD*%
%TA.AperFunction,ViaPad*%
%ADD17C,0.600000*%
%TD*%
%TA.AperFunction,Conductor*%
%ADD18C,0.200000*%
%TD*%
%TA.AperFunction,Conductor*%
%ADD19C,1.000000*%
%TD*%
G04 APERTURE END LIST*
D10*
%TO.P,K1,1,out+*%
%TO.N,TS+*%
X119150000Y-100400000D03*
%TO.P,K1,2,out-*%
%TO.N,Discharge*%
X169950000Y-100400000D03*
%TO.P,K1,3,-*%
%TO.N,GND*%
X144550000Y-105500000D03*
%TO.P,K1,4,+*%
%TO.N,SDC*%
X144550000Y-95300000D03*
%TD*%
D11*
%TO.P,J3,1,1*%
%TO.N,TS+*%
X116850000Y-88320000D03*
D12*
%TO.P,J3,2,2*%
%TO.N,unconnected-(J3-Pad2)*%
X119850000Y-88320000D03*
%TO.P,J3,3,3*%
%TO.N,unconnected-(J3-Pad3)*%
X122850000Y-88320000D03*
%TO.P,J3,4,4*%
%TO.N,TS-*%
X125850000Y-88320000D03*
%TD*%
D13*
%TO.P,RV1,1,1*%
%TO.N,SDC*%
X148500000Y-120250000D03*
%TO.P,RV1,2,2*%
%TO.N,/Ref*%
X151040000Y-117710000D03*
%TO.P,RV1,3,3*%
%TO.N,GND*%
X148500000Y-115170000D03*
%TD*%
D11*
%TO.P,J1,1,1*%
%TO.N,TS-*%
X125650000Y-118000000D03*
D12*
%TO.P,J1,2,2*%
%TO.N,unconnected-(J1-Pad2)*%
X122650000Y-118000000D03*
%TO.P,J1,3,3*%
%TO.N,unconnected-(J1-Pad3)*%
X119650000Y-118000000D03*
%TO.P,J1,4,4*%
%TO.N,Discharge*%
X116650000Y-118000000D03*
%TD*%
D14*
%TO.P,MOSFET1,1*%
%TO.N,TS+*%
X122190000Y-113250000D03*
D15*
%TO.P,MOSFET1,2*%
%TO.N,DCDC*%
X126000000Y-113250000D03*
%TO.P,MOSFET1,3*%
%TO.N,GND*%
X133620000Y-113250000D03*
%TO.P,MOSFET1,4*%
%TO.N,/Enable*%
X137430000Y-113250000D03*
%TD*%
D16*
%TO.P,TP2,1,1*%
%TO.N,/Enable*%
X160625000Y-125525000D03*
%TD*%
D11*
%TO.P,J6,1,1*%
%TO.N,unconnected-(J6-Pad1)*%
X165254200Y-82880000D03*
D12*
%TO.P,J6,2,2*%
%TO.N,DCDC*%
X165254200Y-85880000D03*
%TD*%
D16*
%TO.P,TP3,1,1*%
%TO.N,/Ref*%
X152625000Y-125525000D03*
%TD*%
%TO.P,TP1,1,1*%
%TO.N,/Delay*%
X156625000Y-125525000D03*
%TD*%
D11*
%TO.P,J5,1,1*%
%TO.N,SDC*%
X165254200Y-121000000D03*
D12*
%TO.P,J5,2,2*%
%TO.N,GND*%
X165254200Y-124000000D03*
%TD*%
D17*
%TO.N,/Enable*%
X158750000Y-117400000D03*
%TD*%
D18*
%TO.N,GND*%
X144550000Y-111220000D02*
X148500000Y-115170000D01*
X144550000Y-105500000D02*
X144550000Y-111220000D01*
D19*
%TO.N,DCDC*%
X125266605Y-79250000D02*
X121389000Y-83127605D01*
X121389000Y-83127605D02*
X121389000Y-94889000D01*
X121389000Y-94889000D02*
X126000000Y-99500000D01*
X126000000Y-99500000D02*
X126000000Y-113250000D01*
X165254200Y-85880000D02*
X158624200Y-79250000D01*
X158624200Y-79250000D02*
X125266605Y-79250000D01*
%TO.N,TS+*%
X119150000Y-100400000D02*
X122190000Y-103440000D01*
X119150000Y-100400000D02*
X116850000Y-98100000D01*
X122190000Y-103440000D02*
X122190000Y-113250000D01*
X116850000Y-98100000D02*
X116850000Y-88320000D01*
D18*
%TO.N,SDC*%
X159860600Y-116668100D02*
X149553100Y-116668100D01*
X144550000Y-95300000D02*
X146250000Y-97000000D01*
X164192500Y-121000000D02*
X159860600Y-116668100D01*
X165254200Y-121000000D02*
X164192500Y-121000000D01*
X146250000Y-97000000D02*
X146250000Y-111342814D01*
X146250000Y-111342814D02*
X149553100Y-114645914D01*
X149553100Y-119196900D02*
X148500000Y-120250000D01*
X149553100Y-114645914D02*
X149553100Y-116668100D01*
X149553100Y-116668100D02*
X149553100Y-119196900D01*
%TO.N,/Enable*%
X158750000Y-123650000D02*
X160625000Y-125525000D01*
X158750000Y-117400000D02*
X158750000Y-123650000D01*
%TO.N,/Ref*%
X152625000Y-119295000D02*
X151040000Y-117710000D01*
X152625000Y-125525000D02*
X152625000Y-119295000D01*
%TD*%
M02*
