%TF.GenerationSoftware,KiCad,Pcbnew,9.0.1-1.fc42*%
%TF.CreationDate,2025-05-01T02:21:56+08:00*%
%TF.ProjectId,discharge & time_delayforDCDC,64697363-6861-4726-9765-20262074696d,rev?*%
%TF.SameCoordinates,Original*%
%TF.FileFunction,Copper,L1,Top*%
%TF.FilePolarity,Positive*%
%FSLAX46Y46*%
G04 Gerber Fmt 4.6, Leading zero omitted, Abs format (unit mm)*
G04 Created by KiCad (PCBNEW 9.0.1-1.fc42) date 2025-05-01 02:21:56*
%MOMM*%
%LPD*%
G01*
G04 APERTURE LIST*
G04 Aperture macros list*
%AMRoundRect*
0 Rectangle with rounded corners*
0 $1 Rounding radius*
0 $2 $3 $4 $5 $6 $7 $8 $9 X,Y pos of 4 corners*
0 Add a 4 corners polygon primitive as box body*
4,1,4,$2,$3,$4,$5,$6,$7,$8,$9,$2,$3,0*
0 Add four circle primitives for the rounded corners*
1,1,$1+$1,$2,$3*
1,1,$1+$1,$4,$5*
1,1,$1+$1,$6,$7*
1,1,$1+$1,$8,$9*
0 Add four rect primitives between the rounded corners*
20,1,$1+$1,$2,$3,$4,$5,0*
20,1,$1+$1,$4,$5,$6,$7,0*
20,1,$1+$1,$6,$7,$8,$9,0*
20,1,$1+$1,$8,$9,$2,$3,0*%
G04 Aperture macros list end*
%TA.AperFunction,SMDPad,CuDef*%
%ADD10RoundRect,0.250000X1.000000X0.650000X-1.000000X0.650000X-1.000000X-0.650000X1.000000X-0.650000X0*%
%TD*%
%TA.AperFunction,ComponentPad*%
%ADD11C,1.650000*%
%TD*%
%TA.AperFunction,ComponentPad*%
%ADD12R,1.520000X1.520000*%
%TD*%
%TA.AperFunction,ComponentPad*%
%ADD13C,1.520000*%
%TD*%
%TA.AperFunction,ComponentPad*%
%ADD14C,1.440000*%
%TD*%
%TA.AperFunction,SMDPad,CuDef*%
%ADD15RoundRect,0.237500X-0.250000X-0.237500X0.250000X-0.237500X0.250000X0.237500X-0.250000X0.237500X0*%
%TD*%
%TA.AperFunction,SMDPad,CuDef*%
%ADD16RoundRect,0.250000X-1.100000X0.412500X-1.100000X-0.412500X1.100000X-0.412500X1.100000X0.412500X0*%
%TD*%
%TA.AperFunction,SMDPad,CuDef*%
%ADD17RoundRect,0.100000X-0.637500X-0.100000X0.637500X-0.100000X0.637500X0.100000X-0.637500X0.100000X0*%
%TD*%
%TA.AperFunction,ComponentPad*%
%ADD18R,2.300000X2.300000*%
%TD*%
%TA.AperFunction,ComponentPad*%
%ADD19C,2.300000*%
%TD*%
%TA.AperFunction,ComponentPad*%
%ADD20C,1.500000*%
%TD*%
%TA.AperFunction,ViaPad*%
%ADD21C,0.600000*%
%TD*%
%TA.AperFunction,Conductor*%
%ADD22C,0.200000*%
%TD*%
%TA.AperFunction,Conductor*%
%ADD23C,1.000000*%
%TD*%
G04 APERTURE END LIST*
D10*
%TO.P,D1,1,K*%
%TO.N,SDC*%
X149225000Y-125270000D03*
%TO.P,D1,2,A*%
%TO.N,GND*%
X145225000Y-125270000D03*
%TD*%
D11*
%TO.P,K1,1,out+*%
%TO.N,TS+*%
X119150000Y-100400000D03*
%TO.P,K1,2,out-*%
%TO.N,Discharge*%
X169950000Y-100400000D03*
%TO.P,K1,3,-*%
%TO.N,GND*%
X144550000Y-105500000D03*
%TO.P,K1,4,+*%
%TO.N,SDC*%
X144550000Y-95300000D03*
%TD*%
D12*
%TO.P,J3,1,1*%
%TO.N,TS+*%
X116850000Y-88320000D03*
D13*
%TO.P,J3,2,2*%
%TO.N,unconnected-(J3-Pad2)*%
X119850000Y-88320000D03*
%TO.P,J3,3,3*%
%TO.N,unconnected-(J3-Pad3)*%
X122850000Y-88320000D03*
%TO.P,J3,4,4*%
%TO.N,TS-*%
X125850000Y-88320000D03*
%TD*%
D14*
%TO.P,RV1,1,1*%
%TO.N,SDC*%
X148500000Y-120250000D03*
%TO.P,RV1,2,2*%
%TO.N,/Ref*%
X151040000Y-117710000D03*
%TO.P,RV1,3,3*%
%TO.N,GND*%
X148500000Y-115170000D03*
%TD*%
D15*
%TO.P,R2,1*%
%TO.N,/Enable*%
X159657500Y-122000000D03*
%TO.P,R2,2*%
%TO.N,SDC*%
X161482500Y-122000000D03*
%TD*%
D16*
%TO.P,C1,1*%
%TO.N,/Delay*%
X156500000Y-118997500D03*
%TO.P,C1,2*%
%TO.N,GND*%
X156500000Y-122122500D03*
%TD*%
D15*
%TO.P,R1,1*%
%TO.N,/Delay*%
X159657500Y-119000000D03*
%TO.P,R1,2*%
%TO.N,SDC*%
X161482500Y-119000000D03*
%TD*%
D12*
%TO.P,J1,1,1*%
%TO.N,TS-*%
X125650000Y-118000000D03*
D13*
%TO.P,J1,2,2*%
%TO.N,unconnected-(J1-Pad2)*%
X122650000Y-118000000D03*
%TO.P,J1,3,3*%
%TO.N,unconnected-(J1-Pad3)*%
X119650000Y-118000000D03*
%TO.P,J1,4,4*%
%TO.N,Discharge*%
X116650000Y-118000000D03*
%TD*%
D17*
%TO.P,U1,1*%
%TO.N,/Enable*%
X155637500Y-114275000D03*
%TO.P,U1,2,-*%
%TO.N,/Ref*%
X155637500Y-114925000D03*
%TO.P,U1,3,+*%
%TO.N,/Delay*%
X155637500Y-115575000D03*
%TO.P,U1,4,V-*%
%TO.N,GND*%
X155637500Y-116225000D03*
%TO.P,U1,5,+*%
%TO.N,unconnected-(U1B-+-Pad5)*%
X161362500Y-116225000D03*
%TO.P,U1,6,-*%
%TO.N,unconnected-(U1B---Pad6)*%
X161362500Y-115575000D03*
%TO.P,U1,7*%
%TO.N,unconnected-(U1-Pad7)*%
X161362500Y-114925000D03*
%TO.P,U1,8,V+*%
%TO.N,SDC*%
X161362500Y-114275000D03*
%TD*%
D18*
%TO.P,MOSFET1,1*%
%TO.N,TS+*%
X122190000Y-113250000D03*
D19*
%TO.P,MOSFET1,2*%
%TO.N,DCDC*%
X126000000Y-113250000D03*
%TO.P,MOSFET1,3*%
%TO.N,GND*%
X133620000Y-113250000D03*
%TO.P,MOSFET1,4*%
%TO.N,/Enable*%
X137430000Y-113250000D03*
%TD*%
D20*
%TO.P,TP2,1,1*%
%TO.N,/Enable*%
X160625000Y-125525000D03*
%TD*%
D12*
%TO.P,J6,1,1*%
%TO.N,unconnected-(J6-Pad1)*%
X165254200Y-82880000D03*
D13*
%TO.P,J6,2,2*%
%TO.N,DCDC*%
X165254200Y-85880000D03*
%TD*%
D20*
%TO.P,TP3,1,1*%
%TO.N,/Ref*%
X152625000Y-125525000D03*
%TD*%
%TO.P,TP1,1,1*%
%TO.N,/Delay*%
X156625000Y-125525000D03*
%TD*%
D12*
%TO.P,J5,1,1*%
%TO.N,SDC*%
X165254200Y-121000000D03*
D13*
%TO.P,J5,2,2*%
%TO.N,GND*%
X165254200Y-124000000D03*
%TD*%
D21*
%TO.N,/Enable*%
X158750000Y-117400000D03*
%TD*%
D22*
%TO.N,/Delay*%
X156500000Y-118997500D02*
X158400000Y-118997500D01*
X158400000Y-123750000D02*
X158400000Y-118997500D01*
X157162500Y-118335000D02*
X157162500Y-116362501D01*
X158400000Y-118997500D02*
X159655000Y-118997500D01*
X157162500Y-116362501D02*
X156374999Y-115575000D01*
X156374999Y-115575000D02*
X155637500Y-115575000D01*
X159655000Y-118997500D02*
X159657500Y-119000000D01*
X156625000Y-125525000D02*
X158400000Y-123750000D01*
X156500000Y-118997500D02*
X157162500Y-118335000D01*
%TO.N,GND*%
X135540000Y-115170000D02*
X133620000Y-113250000D01*
X148500000Y-115170000D02*
X135540000Y-115170000D01*
D23*
%TO.N,TS-*%
X124149000Y-90021000D02*
X125850000Y-88320000D01*
X125650000Y-118000000D02*
X124149000Y-116499000D01*
X124149000Y-116499000D02*
X124149000Y-90021000D01*
%TO.N,Discharge*%
X115389000Y-84427605D02*
X115389000Y-116739000D01*
X169950000Y-100400000D02*
X169950000Y-93991478D01*
X120566605Y-79250000D02*
X115389000Y-84427605D01*
X115389000Y-116739000D02*
X116650000Y-118000000D01*
X155208522Y-79250000D02*
X120566605Y-79250000D01*
X169950000Y-93991478D02*
X155208522Y-79250000D01*
D22*
%TO.N,SDC*%
X161482500Y-119000000D02*
X162401000Y-118081500D01*
X162401000Y-118081500D02*
X162401000Y-114656130D01*
X148500000Y-124545000D02*
X149225000Y-125270000D01*
X148500000Y-120250000D02*
X148500000Y-124545000D01*
X162401000Y-114656130D02*
X162019870Y-114275000D01*
X161482500Y-121000000D02*
X161482500Y-119000000D01*
X165254200Y-121000000D02*
X161482500Y-121000000D01*
X162019870Y-114275000D02*
X161362500Y-114275000D01*
X161482500Y-122000000D02*
X161482500Y-121000000D01*
%TO.N,/Enable*%
X159657500Y-124557500D02*
X160625000Y-125525000D01*
X158750000Y-117400000D02*
X158750000Y-116650001D01*
X137430000Y-113250000D02*
X154612500Y-113250000D01*
X158750000Y-116650001D02*
X156374999Y-114275000D01*
X159657500Y-122000000D02*
X159657500Y-124557500D01*
X154612500Y-113250000D02*
X155637500Y-114275000D01*
X156374999Y-114275000D02*
X155637500Y-114275000D01*
%TO.N,/Ref*%
X153825000Y-114925000D02*
X155637500Y-114925000D01*
X151040000Y-117710000D02*
X153825000Y-114925000D01*
%TD*%
%TA.AperFunction,Conductor*%
%TO.N,GND*%
G36*
X162265677Y-113019685D02*
G01*
X162286319Y-113036319D01*
X166713681Y-117463681D01*
X166747166Y-117525004D01*
X166750000Y-117551362D01*
X166750000Y-123814052D01*
X166730315Y-123881091D01*
X166677511Y-123926846D01*
X166608353Y-123936790D01*
X166544797Y-123907765D01*
X166507023Y-123848987D01*
X166503527Y-123833450D01*
X166483173Y-123704947D01*
X166421889Y-123516330D01*
X166421888Y-123516327D01*
X166331845Y-123339612D01*
X166305038Y-123302715D01*
X166305037Y-123302714D01*
X165745327Y-123862423D01*
X165729445Y-123803147D01*
X165662302Y-123686853D01*
X165567347Y-123591898D01*
X165451053Y-123524755D01*
X165391774Y-123508871D01*
X165951483Y-122949161D01*
X165914580Y-122922350D01*
X165737872Y-122832311D01*
X165737869Y-122832310D01*
X165549252Y-122771026D01*
X165353363Y-122740000D01*
X165155037Y-122740000D01*
X164959147Y-122771026D01*
X164770530Y-122832310D01*
X164770522Y-122832313D01*
X164593815Y-122922352D01*
X164556915Y-122949160D01*
X164556915Y-122949161D01*
X165116625Y-123508871D01*
X165057347Y-123524755D01*
X164941053Y-123591898D01*
X164846098Y-123686853D01*
X164778955Y-123803147D01*
X164763071Y-123862425D01*
X164203361Y-123302715D01*
X164203360Y-123302715D01*
X164176552Y-123339615D01*
X164086513Y-123516322D01*
X164086510Y-123516330D01*
X164025226Y-123704947D01*
X163994200Y-123900836D01*
X163994200Y-124099163D01*
X164025226Y-124295052D01*
X164086510Y-124483669D01*
X164086511Y-124483672D01*
X164176550Y-124660380D01*
X164203361Y-124697283D01*
X164763071Y-124137574D01*
X164778955Y-124196853D01*
X164846098Y-124313147D01*
X164941053Y-124408102D01*
X165057347Y-124475245D01*
X165116624Y-124491128D01*
X164556914Y-125050837D01*
X164556915Y-125050838D01*
X164593812Y-125077645D01*
X164770527Y-125167688D01*
X164770530Y-125167689D01*
X164959147Y-125228973D01*
X165155037Y-125260000D01*
X165353363Y-125260000D01*
X165549252Y-125228973D01*
X165737869Y-125167689D01*
X165737872Y-125167688D01*
X165914582Y-125077648D01*
X165951483Y-125050837D01*
X165951484Y-125050836D01*
X165391775Y-124491127D01*
X165451053Y-124475245D01*
X165567347Y-124408102D01*
X165662302Y-124313147D01*
X165729445Y-124196853D01*
X165745328Y-124137575D01*
X166305036Y-124697284D01*
X166305037Y-124697283D01*
X166331848Y-124660382D01*
X166421888Y-124483672D01*
X166421889Y-124483669D01*
X166483173Y-124295052D01*
X166503527Y-124166549D01*
X166533456Y-124103414D01*
X166592768Y-124066483D01*
X166662630Y-124067481D01*
X166720863Y-124106091D01*
X166748977Y-124170055D01*
X166750000Y-124185947D01*
X166750000Y-127876000D01*
X166730315Y-127943039D01*
X166677511Y-127988794D01*
X166626000Y-128000000D01*
X143624829Y-128000000D01*
X143557790Y-127980315D01*
X143512035Y-127927511D01*
X143500832Y-127875173D01*
X143509574Y-126563763D01*
X143529705Y-126496861D01*
X143582813Y-126451459D01*
X143652036Y-126441977D01*
X143715397Y-126471424D01*
X143721252Y-126476913D01*
X143756654Y-126512315D01*
X143905875Y-126604356D01*
X143905880Y-126604358D01*
X144072302Y-126659505D01*
X144072309Y-126659506D01*
X144175019Y-126669999D01*
X144974999Y-126669999D01*
X145475000Y-126669999D01*
X146274972Y-126669999D01*
X146274986Y-126669998D01*
X146377697Y-126659505D01*
X146544119Y-126604358D01*
X146544124Y-126604356D01*
X146693345Y-126512315D01*
X146817315Y-126388345D01*
X146909356Y-126239124D01*
X146909358Y-126239119D01*
X146964505Y-126072697D01*
X146964506Y-126072690D01*
X146974999Y-125969986D01*
X146975000Y-125969973D01*
X146975000Y-125520000D01*
X145475000Y-125520000D01*
X145475000Y-126669999D01*
X144974999Y-126669999D01*
X144975000Y-126669998D01*
X144975000Y-125020000D01*
X145475000Y-125020000D01*
X146974999Y-125020000D01*
X146974999Y-124570028D01*
X146974998Y-124570013D01*
X146964505Y-124467302D01*
X146909358Y-124300880D01*
X146909356Y-124300875D01*
X146817315Y-124151654D01*
X146693345Y-124027684D01*
X146544124Y-123935643D01*
X146544119Y-123935641D01*
X146377697Y-123880494D01*
X146377690Y-123880493D01*
X146274986Y-123870000D01*
X145475000Y-123870000D01*
X145475000Y-125020000D01*
X144975000Y-125020000D01*
X144975000Y-123870000D01*
X144175028Y-123870000D01*
X144175012Y-123870001D01*
X144072302Y-123880494D01*
X143905880Y-123935641D01*
X143905875Y-123935643D01*
X143756654Y-124027684D01*
X143738627Y-124045711D01*
X143677303Y-124079195D01*
X143607612Y-124074209D01*
X143551679Y-124032336D01*
X143527264Y-123966871D01*
X143526951Y-123957226D01*
X143552270Y-120159334D01*
X147579500Y-120159334D01*
X147579500Y-120340665D01*
X147614872Y-120518492D01*
X147614874Y-120518500D01*
X147684261Y-120686017D01*
X147684266Y-120686026D01*
X147785000Y-120836784D01*
X147785003Y-120836788D01*
X147913211Y-120964996D01*
X147913215Y-120964999D01*
X148063973Y-121065733D01*
X148063985Y-121065740D01*
X148122952Y-121090164D01*
X148177356Y-121134004D01*
X148199421Y-121200298D01*
X148199500Y-121204725D01*
X148199500Y-124063656D01*
X148179815Y-124130695D01*
X148127011Y-124176450D01*
X148116456Y-124180697D01*
X148012117Y-124217207D01*
X147902850Y-124297850D01*
X147822207Y-124407117D01*
X147822206Y-124407119D01*
X147777353Y-124535298D01*
X147777353Y-124535300D01*
X147774500Y-124565730D01*
X147774500Y-125974269D01*
X147777353Y-126004699D01*
X147777353Y-126004701D01*
X147821516Y-126130907D01*
X147822207Y-126132882D01*
X147902850Y-126242150D01*
X148012118Y-126322793D01*
X148054845Y-126337744D01*
X148140299Y-126367646D01*
X148170730Y-126370500D01*
X148170734Y-126370500D01*
X150279270Y-126370500D01*
X150309699Y-126367646D01*
X150309701Y-126367646D01*
X150373790Y-126345219D01*
X150437882Y-126322793D01*
X150547150Y-126242150D01*
X150627793Y-126132882D01*
X150650219Y-126068790D01*
X150672646Y-126004701D01*
X150672646Y-126004699D01*
X150675500Y-125974269D01*
X150675500Y-125431379D01*
X151674500Y-125431379D01*
X151674500Y-125618620D01*
X151711025Y-125802243D01*
X151711027Y-125802251D01*
X151782676Y-125975228D01*
X151782681Y-125975237D01*
X151886697Y-126130907D01*
X151886700Y-126130911D01*
X152019088Y-126263299D01*
X152019092Y-126263302D01*
X152174762Y-126367318D01*
X152174768Y-126367321D01*
X152174769Y-126367322D01*
X152347749Y-126438973D01*
X152531379Y-126475499D01*
X152531383Y-126475500D01*
X152531384Y-126475500D01*
X152718617Y-126475500D01*
X152718618Y-126475499D01*
X152902251Y-126438973D01*
X153075231Y-126367322D01*
X153230908Y-126263302D01*
X153363302Y-126130908D01*
X153467322Y-125975231D01*
X153538973Y-125802251D01*
X153575500Y-125618616D01*
X153575500Y-125431384D01*
X153538973Y-125247749D01*
X153467322Y-125074769D01*
X153467321Y-125074768D01*
X153467318Y-125074762D01*
X153363302Y-124919092D01*
X153363299Y-124919088D01*
X153230911Y-124786700D01*
X153230907Y-124786697D01*
X153075237Y-124682681D01*
X153075228Y-124682676D01*
X152902251Y-124611027D01*
X152902243Y-124611025D01*
X152718620Y-124574500D01*
X152718616Y-124574500D01*
X152531384Y-124574500D01*
X152531379Y-124574500D01*
X152347756Y-124611025D01*
X152347748Y-124611027D01*
X152174771Y-124682676D01*
X152174762Y-124682681D01*
X152019092Y-124786697D01*
X152019088Y-124786700D01*
X151886700Y-124919088D01*
X151886697Y-124919092D01*
X151782681Y-125074762D01*
X151782676Y-125074771D01*
X151711027Y-125247748D01*
X151711025Y-125247756D01*
X151674500Y-125431379D01*
X150675500Y-125431379D01*
X150675500Y-124565730D01*
X150672646Y-124535300D01*
X150672646Y-124535298D01*
X150627793Y-124407119D01*
X150627792Y-124407117D01*
X150588260Y-124353553D01*
X150547150Y-124297850D01*
X150437882Y-124217207D01*
X150437880Y-124217206D01*
X150309700Y-124172353D01*
X150279270Y-124169500D01*
X150279266Y-124169500D01*
X148924500Y-124169500D01*
X148857461Y-124149815D01*
X148811706Y-124097011D01*
X148800500Y-124045500D01*
X148800500Y-122584986D01*
X154650001Y-122584986D01*
X154660494Y-122687697D01*
X154715641Y-122854119D01*
X154715643Y-122854124D01*
X154807684Y-123003345D01*
X154931654Y-123127315D01*
X155080875Y-123219356D01*
X155080880Y-123219358D01*
X155247302Y-123274505D01*
X155247309Y-123274506D01*
X155350019Y-123284999D01*
X156249999Y-123284999D01*
X156250000Y-123284998D01*
X156250000Y-122372500D01*
X154650001Y-122372500D01*
X154650001Y-122584986D01*
X148800500Y-122584986D01*
X148800500Y-121660013D01*
X154650000Y-121660013D01*
X154650000Y-121872500D01*
X156250000Y-121872500D01*
X156250000Y-120960000D01*
X155350028Y-120960000D01*
X155350012Y-120960001D01*
X155247302Y-120970494D01*
X155080880Y-121025641D01*
X155080875Y-121025643D01*
X154931654Y-121117684D01*
X154807684Y-121241654D01*
X154715643Y-121390875D01*
X154715641Y-121390880D01*
X154660494Y-121557302D01*
X154660493Y-121557309D01*
X154650000Y-121660013D01*
X148800500Y-121660013D01*
X148800500Y-121204725D01*
X148820185Y-121137686D01*
X148872989Y-121091931D01*
X148877048Y-121090164D01*
X148936014Y-121065740D01*
X148936017Y-121065738D01*
X148936020Y-121065737D01*
X149086785Y-120964999D01*
X149214999Y-120836785D01*
X149315737Y-120686020D01*
X149385126Y-120518500D01*
X149420500Y-120340661D01*
X149420500Y-120159339D01*
X149385126Y-119981500D01*
X149315737Y-119813980D01*
X149315736Y-119813979D01*
X149315733Y-119813973D01*
X149214999Y-119663215D01*
X149214996Y-119663211D01*
X149086788Y-119535003D01*
X149086784Y-119535000D01*
X148936026Y-119434266D01*
X148936017Y-119434261D01*
X148768500Y-119364874D01*
X148768492Y-119364872D01*
X148590665Y-119329500D01*
X148590661Y-119329500D01*
X148409339Y-119329500D01*
X148409334Y-119329500D01*
X148231507Y-119364872D01*
X148231499Y-119364874D01*
X148063982Y-119434261D01*
X148063973Y-119434266D01*
X147913215Y-119535000D01*
X147913211Y-119535003D01*
X147785003Y-119663211D01*
X147785000Y-119663215D01*
X147684266Y-119813973D01*
X147684261Y-119813982D01*
X147614874Y-119981499D01*
X147614872Y-119981507D01*
X147579500Y-120159334D01*
X143552270Y-120159334D01*
X143586173Y-115073984D01*
X147280000Y-115073984D01*
X147280000Y-115266015D01*
X147310040Y-115455684D01*
X147369383Y-115638321D01*
X147456561Y-115809415D01*
X147477798Y-115838646D01*
X148100000Y-115216445D01*
X148100000Y-115222661D01*
X148127259Y-115324394D01*
X148179920Y-115415606D01*
X148254394Y-115490080D01*
X148345606Y-115542741D01*
X148447339Y-115570000D01*
X148453554Y-115570000D01*
X147831351Y-116192200D01*
X147831352Y-116192201D01*
X147860577Y-116213434D01*
X148031678Y-116300616D01*
X148214315Y-116359959D01*
X148403985Y-116390000D01*
X148596015Y-116390000D01*
X148785684Y-116359959D01*
X148968321Y-116300616D01*
X149139419Y-116213436D01*
X149168646Y-116192201D01*
X149168646Y-116192200D01*
X148546447Y-115570000D01*
X148552661Y-115570000D01*
X148654394Y-115542741D01*
X148745606Y-115490080D01*
X148820080Y-115415606D01*
X148872741Y-115324394D01*
X148900000Y-115222661D01*
X148900000Y-115216446D01*
X149522200Y-115838646D01*
X149522201Y-115838646D01*
X149543436Y-115809419D01*
X149630616Y-115638321D01*
X149689959Y-115455684D01*
X149720000Y-115266015D01*
X149720000Y-115073984D01*
X149689959Y-114884315D01*
X149630616Y-114701678D01*
X149543434Y-114530577D01*
X149522201Y-114501352D01*
X149522200Y-114501351D01*
X148900000Y-115123552D01*
X148900000Y-115117339D01*
X148872741Y-115015606D01*
X148820080Y-114924394D01*
X148745606Y-114849920D01*
X148654394Y-114797259D01*
X148552661Y-114770000D01*
X148546447Y-114770000D01*
X149168646Y-114147798D01*
X149139415Y-114126561D01*
X148968321Y-114039383D01*
X148785684Y-113980040D01*
X148596015Y-113950000D01*
X148403985Y-113950000D01*
X148214315Y-113980040D01*
X148031678Y-114039383D01*
X147860578Y-114126564D01*
X147831352Y-114147798D01*
X147831351Y-114147798D01*
X148453554Y-114770000D01*
X148447339Y-114770000D01*
X148345606Y-114797259D01*
X148254394Y-114849920D01*
X148179920Y-114924394D01*
X148127259Y-115015606D01*
X148100000Y-115117339D01*
X148100000Y-115123553D01*
X147477798Y-114501351D01*
X147477798Y-114501352D01*
X147456564Y-114530578D01*
X147369383Y-114701678D01*
X147310040Y-114884315D01*
X147280000Y-115073984D01*
X143586173Y-115073984D01*
X143595509Y-113673673D01*
X143615640Y-113606766D01*
X143668748Y-113561365D01*
X143719506Y-113550500D01*
X154436667Y-113550500D01*
X154503706Y-113570185D01*
X154524348Y-113586819D01*
X154756097Y-113818568D01*
X154789582Y-113879891D01*
X154784598Y-113949583D01*
X154756103Y-113993925D01*
X154747794Y-114002234D01*
X154702415Y-114105006D01*
X154702415Y-114105008D01*
X154699500Y-114130131D01*
X154699500Y-114419856D01*
X154699502Y-114419882D01*
X154702413Y-114444987D01*
X154702414Y-114444989D01*
X154704810Y-114450415D01*
X154713881Y-114519693D01*
X154684057Y-114582878D01*
X154624807Y-114619908D01*
X154591375Y-114624500D01*
X153785438Y-114624500D01*
X153709010Y-114644978D01*
X153640489Y-114684540D01*
X153640486Y-114684542D01*
X151502606Y-116822421D01*
X151441283Y-116855906D01*
X151371591Y-116850922D01*
X151367473Y-116849301D01*
X151308504Y-116824875D01*
X151308492Y-116824872D01*
X151130665Y-116789500D01*
X151130661Y-116789500D01*
X150949339Y-116789500D01*
X150949334Y-116789500D01*
X150771507Y-116824872D01*
X150771499Y-116824874D01*
X150603982Y-116894261D01*
X150603973Y-116894266D01*
X150453215Y-116995000D01*
X150453211Y-116995003D01*
X150325003Y-117123211D01*
X150325000Y-117123215D01*
X150224266Y-117273973D01*
X150224261Y-117273982D01*
X150154874Y-117441499D01*
X150154872Y-117441507D01*
X150119500Y-117619334D01*
X150119500Y-117800665D01*
X150154872Y-117978492D01*
X150154874Y-117978500D01*
X150224261Y-118146017D01*
X150224266Y-118146026D01*
X150325000Y-118296784D01*
X150325003Y-118296788D01*
X150453211Y-118424996D01*
X150453215Y-118424999D01*
X150603973Y-118525733D01*
X150603979Y-118525736D01*
X150603980Y-118525737D01*
X150771500Y-118595126D01*
X150919230Y-118624511D01*
X150949334Y-118630499D01*
X150949338Y-118630500D01*
X150949339Y-118630500D01*
X151130662Y-118630500D01*
X151130663Y-118630499D01*
X151308500Y-118595126D01*
X151476020Y-118525737D01*
X151626785Y-118424999D01*
X151754999Y-118296785D01*
X151855737Y-118146020D01*
X151925126Y-117978500D01*
X151960500Y-117800661D01*
X151960500Y-117619339D01*
X151925126Y-117441500D01*
X151900697Y-117382525D01*
X151893228Y-117313058D01*
X151924502Y-117250578D01*
X151927548Y-117247421D01*
X152749969Y-116425001D01*
X154407988Y-116425001D01*
X154415442Y-116481627D01*
X154415444Y-116481633D01*
X154475899Y-116627585D01*
X154572075Y-116752924D01*
X154697413Y-116849100D01*
X154843365Y-116909554D01*
X154843369Y-116909555D01*
X154960676Y-116924999D01*
X155437499Y-116924999D01*
X155437500Y-116924998D01*
X155437500Y-116425000D01*
X154407990Y-116425000D01*
X154407988Y-116425001D01*
X152749969Y-116425001D01*
X153913152Y-115261819D01*
X153974475Y-115228334D01*
X154000833Y-115225500D01*
X154591375Y-115225500D01*
X154658414Y-115245185D01*
X154704169Y-115297989D01*
X154714938Y-115359898D01*
X154713196Y-115380590D01*
X154702415Y-115405009D01*
X154699500Y-115430135D01*
X154699500Y-115543348D01*
X154699063Y-115548546D01*
X154688249Y-115576462D01*
X154679815Y-115605187D01*
X154675165Y-115610241D01*
X154673826Y-115613699D01*
X154668230Y-115617778D01*
X154650987Y-115636523D01*
X154572077Y-115697073D01*
X154475899Y-115822413D01*
X154415444Y-115968368D01*
X154407987Y-116025000D01*
X155513500Y-116025000D01*
X155580539Y-116044685D01*
X155626294Y-116097489D01*
X155637500Y-116149000D01*
X155637500Y-116225000D01*
X155713500Y-116225000D01*
X155780539Y-116244685D01*
X155826294Y-116297489D01*
X155837500Y-116349000D01*
X155837500Y-116924999D01*
X156314324Y-116924999D01*
X156431628Y-116909557D01*
X156431633Y-116909555D01*
X156577587Y-116849100D01*
X156577590Y-116849098D01*
X156662513Y-116783934D01*
X156727682Y-116758739D01*
X156796127Y-116772777D01*
X156846117Y-116821591D01*
X156862000Y-116882309D01*
X156862000Y-118010500D01*
X156842315Y-118077539D01*
X156789511Y-118123294D01*
X156738000Y-118134500D01*
X155345730Y-118134500D01*
X155315300Y-118137353D01*
X155315298Y-118137353D01*
X155187119Y-118182206D01*
X155187117Y-118182207D01*
X155077850Y-118262850D01*
X154997207Y-118372117D01*
X154997206Y-118372119D01*
X154952353Y-118500298D01*
X154952353Y-118500300D01*
X154949500Y-118530730D01*
X154949500Y-119464269D01*
X154952353Y-119494699D01*
X154952353Y-119494701D01*
X154997206Y-119622880D01*
X154997207Y-119622882D01*
X155077850Y-119732150D01*
X155187118Y-119812793D01*
X155229845Y-119827744D01*
X155315299Y-119857646D01*
X155345730Y-119860500D01*
X155345734Y-119860500D01*
X157654270Y-119860500D01*
X157684699Y-119857646D01*
X157684701Y-119857646D01*
X157748790Y-119835219D01*
X157812882Y-119812793D01*
X157901869Y-119747117D01*
X157967495Y-119723148D01*
X158035665Y-119738463D01*
X158084734Y-119788203D01*
X158099500Y-119846889D01*
X158099500Y-120915112D01*
X158079815Y-120982151D01*
X158027011Y-121027906D01*
X157957853Y-121037850D01*
X157923105Y-121027499D01*
X157919124Y-121025643D01*
X157752697Y-120970494D01*
X157752690Y-120970493D01*
X157649986Y-120960000D01*
X156750000Y-120960000D01*
X156750000Y-123284999D01*
X157649972Y-123284999D01*
X157649986Y-123284998D01*
X157752697Y-123274505D01*
X157919118Y-123219358D01*
X157923096Y-123217504D01*
X157923603Y-123217426D01*
X157923989Y-123217093D01*
X157958048Y-123212195D01*
X157992174Y-123207013D01*
X157992640Y-123207221D01*
X157993147Y-123207149D01*
X158024486Y-123221461D01*
X158055957Y-123235533D01*
X158056236Y-123235961D01*
X158056703Y-123236174D01*
X158075357Y-123265201D01*
X158094196Y-123294010D01*
X158094292Y-123294665D01*
X158094477Y-123294952D01*
X158099500Y-123329887D01*
X158099500Y-123574166D01*
X158079815Y-123641205D01*
X158063181Y-123661847D01*
X157110567Y-124614460D01*
X157049244Y-124647945D01*
X156979552Y-124642961D01*
X156975433Y-124641340D01*
X156902251Y-124611027D01*
X156902243Y-124611025D01*
X156718620Y-124574500D01*
X156718616Y-124574500D01*
X156531384Y-124574500D01*
X156531379Y-124574500D01*
X156347756Y-124611025D01*
X156347748Y-124611027D01*
X156174771Y-124682676D01*
X156174762Y-124682681D01*
X156019092Y-124786697D01*
X156019088Y-124786700D01*
X155886700Y-124919088D01*
X155886697Y-124919092D01*
X155782681Y-125074762D01*
X155782676Y-125074771D01*
X155711027Y-125247748D01*
X155711025Y-125247756D01*
X155674500Y-125431379D01*
X155674500Y-125618620D01*
X155711025Y-125802243D01*
X155711027Y-125802251D01*
X155782676Y-125975228D01*
X155782681Y-125975237D01*
X155886697Y-126130907D01*
X155886700Y-126130911D01*
X156019088Y-126263299D01*
X156019092Y-126263302D01*
X156174762Y-126367318D01*
X156174768Y-126367321D01*
X156174769Y-126367322D01*
X156347749Y-126438973D01*
X156531379Y-126475499D01*
X156531383Y-126475500D01*
X156531384Y-126475500D01*
X156718617Y-126475500D01*
X156718618Y-126475499D01*
X156902251Y-126438973D01*
X157075231Y-126367322D01*
X157230908Y-126263302D01*
X157363302Y-126130908D01*
X157467322Y-125975231D01*
X157538973Y-125802251D01*
X157575500Y-125618616D01*
X157575500Y-125431384D01*
X157538973Y-125247749D01*
X157508657Y-125174561D01*
X157501189Y-125105097D01*
X157532463Y-125042617D01*
X157535508Y-125039461D01*
X158640460Y-123934511D01*
X158680021Y-123865989D01*
X158700500Y-123789562D01*
X158700500Y-121709739D01*
X158969500Y-121709739D01*
X158969500Y-122290260D01*
X158972274Y-122319849D01*
X159015884Y-122444476D01*
X159094288Y-122550710D01*
X159094289Y-122550711D01*
X159200525Y-122629116D01*
X159243879Y-122644286D01*
X159273955Y-122654811D01*
X159330731Y-122695533D01*
X159356478Y-122760486D01*
X159357000Y-122771852D01*
X159357000Y-124597062D01*
X159368468Y-124639860D01*
X159377479Y-124673490D01*
X159377480Y-124673491D01*
X159409823Y-124729511D01*
X159417040Y-124742011D01*
X159417042Y-124742013D01*
X159714460Y-125039431D01*
X159747945Y-125100754D01*
X159742961Y-125170446D01*
X159741341Y-125174563D01*
X159711028Y-125247748D01*
X159711026Y-125247752D01*
X159711024Y-125247756D01*
X159674500Y-125431379D01*
X159674500Y-125618620D01*
X159711025Y-125802243D01*
X159711027Y-125802251D01*
X159782676Y-125975228D01*
X159782681Y-125975237D01*
X159886697Y-126130907D01*
X159886700Y-126130911D01*
X160019088Y-126263299D01*
X160019092Y-126263302D01*
X160174762Y-126367318D01*
X160174768Y-126367321D01*
X160174769Y-126367322D01*
X160347749Y-126438973D01*
X160531379Y-126475499D01*
X160531383Y-126475500D01*
X160531384Y-126475500D01*
X160718617Y-126475500D01*
X160718618Y-126475499D01*
X160902251Y-126438973D01*
X161075231Y-126367322D01*
X161230908Y-126263302D01*
X161363302Y-126130908D01*
X161467322Y-125975231D01*
X161538973Y-125802251D01*
X161575500Y-125618616D01*
X161575500Y-125431384D01*
X161538973Y-125247749D01*
X161467322Y-125074769D01*
X161467320Y-125074767D01*
X161467316Y-125074759D01*
X161465785Y-125072467D01*
X161363302Y-124919092D01*
X161363299Y-124919088D01*
X161230911Y-124786700D01*
X161230907Y-124786697D01*
X161075237Y-124682681D01*
X161075228Y-124682676D01*
X160902251Y-124611027D01*
X160902243Y-124611025D01*
X160718620Y-124574500D01*
X160718616Y-124574500D01*
X160531384Y-124574500D01*
X160531379Y-124574500D01*
X160347756Y-124611024D01*
X160347752Y-124611026D01*
X160347750Y-124611026D01*
X160347749Y-124611027D01*
X160339461Y-124614460D01*
X160274563Y-124641341D01*
X160254686Y-124643477D01*
X160235958Y-124650463D01*
X160220659Y-124647134D01*
X160205094Y-124648808D01*
X160187219Y-124639860D01*
X160167685Y-124635611D01*
X160145394Y-124618924D01*
X160142615Y-124617533D01*
X160139431Y-124614460D01*
X159994319Y-124469348D01*
X159960834Y-124408025D01*
X159958000Y-124381667D01*
X159958000Y-122771852D01*
X159977685Y-122704813D01*
X160030489Y-122659058D01*
X160041045Y-122654811D01*
X160063866Y-122646824D01*
X160114475Y-122629116D01*
X160220711Y-122550711D01*
X160299116Y-122444475D01*
X160342725Y-122319849D01*
X160345500Y-122290256D01*
X160345500Y-121709744D01*
X160342725Y-121680151D01*
X160335678Y-121660013D01*
X160299115Y-121555523D01*
X160220711Y-121449289D01*
X160220710Y-121449288D01*
X160114476Y-121370884D01*
X159989848Y-121327274D01*
X159989849Y-121327274D01*
X159960260Y-121324500D01*
X159960256Y-121324500D01*
X159354744Y-121324500D01*
X159354740Y-121324500D01*
X159325150Y-121327274D01*
X159200523Y-121370884D01*
X159094289Y-121449288D01*
X159094288Y-121449289D01*
X159015884Y-121555523D01*
X158972274Y-121680150D01*
X158969500Y-121709739D01*
X158700500Y-121709739D01*
X158700500Y-119422000D01*
X158720185Y-119354961D01*
X158772989Y-119309206D01*
X158824500Y-119298000D01*
X158876648Y-119298000D01*
X158943687Y-119317685D01*
X158989442Y-119370489D01*
X158993682Y-119381026D01*
X159008020Y-119422000D01*
X159015885Y-119444477D01*
X159094288Y-119550710D01*
X159094289Y-119550711D01*
X159200523Y-119629115D01*
X159200524Y-119629115D01*
X159200525Y-119629116D01*
X159325151Y-119672725D01*
X159325150Y-119672725D01*
X159354740Y-119675500D01*
X159354744Y-119675500D01*
X159960260Y-119675500D01*
X159989849Y-119672725D01*
X160114475Y-119629116D01*
X160220711Y-119550711D01*
X160299116Y-119444475D01*
X160342725Y-119319849D01*
X160345500Y-119290256D01*
X160345500Y-118709744D01*
X160344647Y-118700652D01*
X160342725Y-118680150D01*
X160299115Y-118555523D01*
X160220711Y-118449289D01*
X160220710Y-118449288D01*
X160114476Y-118370884D01*
X159989848Y-118327274D01*
X159989849Y-118327274D01*
X159960260Y-118324500D01*
X159960256Y-118324500D01*
X159354744Y-118324500D01*
X159354740Y-118324500D01*
X159325150Y-118327274D01*
X159200523Y-118370884D01*
X159094289Y-118449288D01*
X159094288Y-118449289D01*
X159015884Y-118555523D01*
X159015884Y-118555524D01*
X158995438Y-118613955D01*
X158954716Y-118670731D01*
X158889764Y-118696478D01*
X158878397Y-118697000D01*
X158174500Y-118697000D01*
X158107461Y-118677315D01*
X158061706Y-118624511D01*
X158050500Y-118573000D01*
X158050500Y-118530730D01*
X158047646Y-118500300D01*
X158047646Y-118500298D01*
X158002793Y-118372119D01*
X158002792Y-118372117D01*
X158001882Y-118370884D01*
X157922150Y-118262850D01*
X157812882Y-118182207D01*
X157812880Y-118182206D01*
X157684700Y-118137353D01*
X157654270Y-118134500D01*
X157654266Y-118134500D01*
X157587000Y-118134500D01*
X157519961Y-118114815D01*
X157474206Y-118062011D01*
X157463000Y-118010500D01*
X157463000Y-116322941D01*
X157463000Y-116322939D01*
X157442522Y-116246513D01*
X157402960Y-116177990D01*
X156559510Y-115334540D01*
X156555269Y-115330299D01*
X156545020Y-115311529D01*
X156530814Y-115295546D01*
X156528609Y-115281476D01*
X156521784Y-115268976D01*
X156523309Y-115247644D01*
X156520000Y-115226519D01*
X156526473Y-115203397D01*
X156526768Y-115199284D01*
X156529509Y-115192549D01*
X156559942Y-115123623D01*
X156605028Y-115070247D01*
X156671814Y-115049720D01*
X156739096Y-115068558D01*
X156761057Y-115086029D01*
X158413181Y-116738153D01*
X158446666Y-116799476D01*
X158449500Y-116825834D01*
X158449500Y-116941323D01*
X158429815Y-117008362D01*
X158413182Y-117029004D01*
X158349500Y-117092686D01*
X158283608Y-117206812D01*
X158249500Y-117334108D01*
X158249500Y-117465891D01*
X158283608Y-117593187D01*
X158298707Y-117619338D01*
X158349500Y-117707314D01*
X158442686Y-117800500D01*
X158556814Y-117866392D01*
X158684108Y-117900500D01*
X158684110Y-117900500D01*
X158815890Y-117900500D01*
X158815892Y-117900500D01*
X158943186Y-117866392D01*
X159057314Y-117800500D01*
X159150500Y-117707314D01*
X159216392Y-117593186D01*
X159250500Y-117465892D01*
X159250500Y-117334108D01*
X159216392Y-117206814D01*
X159150500Y-117092686D01*
X159086818Y-117029004D01*
X159053334Y-116967680D01*
X159050500Y-116941323D01*
X159050500Y-116610440D01*
X159050500Y-116610439D01*
X159041595Y-116577206D01*
X159030022Y-116534013D01*
X158990460Y-116465490D01*
X156655101Y-114130131D01*
X160424500Y-114130131D01*
X160424500Y-114419856D01*
X160424502Y-114419882D01*
X160427413Y-114444986D01*
X160427414Y-114444990D01*
X160427415Y-114444991D01*
X160472794Y-114547765D01*
X160472795Y-114547766D01*
X160473743Y-114549913D01*
X160482814Y-114619191D01*
X160473743Y-114650085D01*
X160427415Y-114755009D01*
X160424500Y-114780131D01*
X160424500Y-115069856D01*
X160424502Y-115069882D01*
X160427413Y-115094986D01*
X160427414Y-115094990D01*
X160427415Y-115094991D01*
X160472794Y-115197765D01*
X160472795Y-115197766D01*
X160473743Y-115199913D01*
X160482814Y-115269191D01*
X160473743Y-115300085D01*
X160427415Y-115405009D01*
X160424500Y-115430131D01*
X160424500Y-115719856D01*
X160424502Y-115719882D01*
X160427413Y-115744986D01*
X160427414Y-115744990D01*
X160427415Y-115744991D01*
X160472794Y-115847765D01*
X160472795Y-115847766D01*
X160473743Y-115849913D01*
X160482814Y-115919191D01*
X160473743Y-115950085D01*
X160427415Y-116055009D01*
X160424500Y-116080131D01*
X160424500Y-116369856D01*
X160424502Y-116369882D01*
X160427413Y-116394987D01*
X160427415Y-116394991D01*
X160472793Y-116497764D01*
X160472794Y-116497765D01*
X160552235Y-116577206D01*
X160655009Y-116622585D01*
X160680135Y-116625500D01*
X161976500Y-116625499D01*
X162043539Y-116645184D01*
X162089294Y-116697987D01*
X162100500Y-116749499D01*
X162100500Y-117905667D01*
X162080815Y-117972706D01*
X162064181Y-117993348D01*
X161769348Y-118288181D01*
X161708025Y-118321666D01*
X161681667Y-118324500D01*
X161179740Y-118324500D01*
X161150150Y-118327274D01*
X161025523Y-118370884D01*
X160919289Y-118449288D01*
X160919288Y-118449289D01*
X160840884Y-118555523D01*
X160797274Y-118680150D01*
X160794500Y-118709739D01*
X160794500Y-119290260D01*
X160797274Y-119319849D01*
X160840884Y-119444476D01*
X160907696Y-119535003D01*
X160919289Y-119550711D01*
X161025525Y-119629116D01*
X161068879Y-119644286D01*
X161098955Y-119654811D01*
X161155731Y-119695533D01*
X161181478Y-119760486D01*
X161182000Y-119771852D01*
X161182000Y-121228147D01*
X161162315Y-121295186D01*
X161109511Y-121340941D01*
X161098957Y-121345188D01*
X161025522Y-121370885D01*
X160919289Y-121449288D01*
X160919288Y-121449289D01*
X160840884Y-121555523D01*
X160797274Y-121680150D01*
X160794500Y-121709739D01*
X160794500Y-122290260D01*
X160797274Y-122319849D01*
X160840884Y-122444476D01*
X160919288Y-122550710D01*
X160919289Y-122550711D01*
X161025523Y-122629115D01*
X161025524Y-122629115D01*
X161025525Y-122629116D01*
X161150151Y-122672725D01*
X161150150Y-122672725D01*
X161179740Y-122675500D01*
X161179744Y-122675500D01*
X161785260Y-122675500D01*
X161814849Y-122672725D01*
X161939475Y-122629116D01*
X162045711Y-122550711D01*
X162124116Y-122444475D01*
X162167725Y-122319849D01*
X162170500Y-122290256D01*
X162170500Y-121709744D01*
X162167725Y-121680151D01*
X162160678Y-121660013D01*
X162124116Y-121555525D01*
X162081759Y-121498133D01*
X162057789Y-121432504D01*
X162073105Y-121364334D01*
X162122845Y-121315266D01*
X162181530Y-121300500D01*
X164169700Y-121300500D01*
X164236739Y-121320185D01*
X164282494Y-121372989D01*
X164293700Y-121424500D01*
X164293700Y-121779752D01*
X164305331Y-121838229D01*
X164305332Y-121838230D01*
X164349647Y-121904552D01*
X164415969Y-121948867D01*
X164415970Y-121948868D01*
X164474447Y-121960499D01*
X164474450Y-121960500D01*
X164474452Y-121960500D01*
X166033950Y-121960500D01*
X166033951Y-121960499D01*
X166048768Y-121957552D01*
X166092429Y-121948868D01*
X166092429Y-121948867D01*
X166092431Y-121948867D01*
X166158752Y-121904552D01*
X166203067Y-121838231D01*
X166203067Y-121838229D01*
X166203068Y-121838229D01*
X166214699Y-121779752D01*
X166214700Y-121779750D01*
X166214700Y-120220249D01*
X166214699Y-120220247D01*
X166203068Y-120161770D01*
X166203067Y-120161769D01*
X166158752Y-120095447D01*
X166092430Y-120051132D01*
X166092429Y-120051131D01*
X166033952Y-120039500D01*
X166033948Y-120039500D01*
X164474452Y-120039500D01*
X164474447Y-120039500D01*
X164415970Y-120051131D01*
X164415969Y-120051132D01*
X164349647Y-120095447D01*
X164305332Y-120161769D01*
X164305331Y-120161770D01*
X164293700Y-120220247D01*
X164293700Y-120575500D01*
X164274015Y-120642539D01*
X164221211Y-120688294D01*
X164169700Y-120699500D01*
X161907000Y-120699500D01*
X161839961Y-120679815D01*
X161794206Y-120627011D01*
X161783000Y-120575500D01*
X161783000Y-119771852D01*
X161802685Y-119704813D01*
X161855489Y-119659058D01*
X161866045Y-119654811D01*
X161888866Y-119646824D01*
X161939475Y-119629116D01*
X162045711Y-119550711D01*
X162124116Y-119444475D01*
X162167725Y-119319849D01*
X162170500Y-119290256D01*
X162170500Y-118788333D01*
X162190185Y-118721294D01*
X162206819Y-118700652D01*
X162407173Y-118500298D01*
X162641460Y-118266011D01*
X162643285Y-118262850D01*
X162681021Y-118197489D01*
X162701500Y-118121062D01*
X162701500Y-114616568D01*
X162681021Y-114540141D01*
X162675499Y-114530577D01*
X162641464Y-114471625D01*
X162641458Y-114471617D01*
X162329396Y-114159555D01*
X162302435Y-114113064D01*
X162301353Y-114113542D01*
X162252206Y-114002235D01*
X162172765Y-113922794D01*
X162069992Y-113877415D01*
X162044865Y-113874500D01*
X160680143Y-113874500D01*
X160680117Y-113874502D01*
X160655012Y-113877413D01*
X160655008Y-113877415D01*
X160552235Y-113922793D01*
X160472794Y-114002234D01*
X160427415Y-114105006D01*
X160427415Y-114105008D01*
X160424500Y-114130131D01*
X156655101Y-114130131D01*
X156559510Y-114034540D01*
X156553714Y-114030092D01*
X156529396Y-114004425D01*
X156505011Y-113980040D01*
X156447765Y-113922794D01*
X156447763Y-113922793D01*
X156344992Y-113877415D01*
X156319868Y-113874500D01*
X156319865Y-113874500D01*
X155713333Y-113874500D01*
X155646294Y-113854815D01*
X155625652Y-113838181D01*
X154999152Y-113211681D01*
X154965667Y-113150358D01*
X154970651Y-113080666D01*
X155012523Y-113024733D01*
X155077987Y-113000316D01*
X155086833Y-113000000D01*
X162198638Y-113000000D01*
X162265677Y-113019685D01*
G37*
%TD.AperFunction*%
%TD*%
M02*
