%TF.GenerationSoftware,KiCad,Pcbnew,9.0.1-1.fc42*%
%TF.CreationDate,2025-05-01T02:21:56+08:00*%
%TF.ProjectId,discharge & time_delayforDCDC,64697363-6861-4726-9765-20262074696d,rev?*%
%TF.SameCoordinates,Original*%
%TF.FileFunction,Soldermask,Top*%
%TF.FilePolarity,Negative*%
%FSLAX46Y46*%
G04 Gerber Fmt 4.6, Leading zero omitted, Abs format (unit mm)*
G04 Created by KiCad (PCBNEW 9.0.1-1.fc42) date 2025-05-01 02:21:56*
%MOMM*%
%LPD*%
G01*
G04 APERTURE LIST*
G04 Aperture macros list*
%AMRoundRect*
0 Rectangle with rounded corners*
0 $1 Rounding radius*
0 $2 $3 $4 $5 $6 $7 $8 $9 X,Y pos of 4 corners*
0 Add a 4 corners polygon primitive as box body*
4,1,4,$2,$3,$4,$5,$6,$7,$8,$9,$2,$3,0*
0 Add four circle primitives for the rounded corners*
1,1,$1+$1,$2,$3*
1,1,$1+$1,$4,$5*
1,1,$1+$1,$6,$7*
1,1,$1+$1,$8,$9*
0 Add four rect primitives between the rounded corners*
20,1,$1+$1,$2,$3,$4,$5,0*
20,1,$1+$1,$4,$5,$6,$7,0*
20,1,$1+$1,$6,$7,$8,$9,0*
20,1,$1+$1,$8,$9,$2,$3,0*%
G04 Aperture macros list end*
%ADD10RoundRect,0.250000X1.000000X0.650000X-1.000000X0.650000X-1.000000X-0.650000X1.000000X-0.650000X0*%
%ADD11C,1.650000*%
%ADD12C,3.000000*%
%ADD13R,1.520000X1.520000*%
%ADD14C,1.520000*%
%ADD15C,1.440000*%
%ADD16RoundRect,0.237500X-0.250000X-0.237500X0.250000X-0.237500X0.250000X0.237500X-0.250000X0.237500X0*%
%ADD17RoundRect,0.250000X-1.100000X0.412500X-1.100000X-0.412500X1.100000X-0.412500X1.100000X0.412500X0*%
%ADD18C,4.300000*%
%ADD19RoundRect,0.100000X-0.637500X-0.100000X0.637500X-0.100000X0.637500X0.100000X-0.637500X0.100000X0*%
%ADD20R,2.300000X2.300000*%
%ADD21C,2.300000*%
%ADD22C,1.500000*%
G04 APERTURE END LIST*
D10*
%TO.C,D1*%
X149225000Y-125270000D03*
X145225000Y-125270000D03*
%TD*%
D11*
%TO.C,K1*%
X119150000Y-100400000D03*
X169950000Y-100400000D03*
X144550000Y-105500000D03*
X144550000Y-95300000D03*
%TD*%
D12*
%TO.C,J3*%
X123700000Y-84000000D03*
X119000000Y-84000000D03*
D13*
X116850000Y-88320000D03*
D14*
X119850000Y-88320000D03*
X122850000Y-88320000D03*
X125850000Y-88320000D03*
%TD*%
D15*
%TO.C,RV1*%
X148500000Y-120250000D03*
X151040000Y-117710000D03*
X148500000Y-115170000D03*
%TD*%
D16*
%TO.C,R2*%
X159657500Y-122000000D03*
X161482500Y-122000000D03*
%TD*%
D17*
%TO.C,C1*%
X156500000Y-118997500D03*
X156500000Y-122122500D03*
%TD*%
D18*
%TO.C,H3*%
X135825000Y-84625000D03*
%TD*%
D16*
%TO.C,R1*%
X159657500Y-119000000D03*
X161482500Y-119000000D03*
%TD*%
D18*
%TO.C,H1*%
X152325000Y-84575000D03*
%TD*%
D12*
%TO.C,J1*%
X118800000Y-122320000D03*
X123500000Y-122320000D03*
D13*
X125650000Y-118000000D03*
D14*
X122650000Y-118000000D03*
X119650000Y-118000000D03*
X116650000Y-118000000D03*
%TD*%
D19*
%TO.C,U1*%
X155637500Y-114275000D03*
X155637500Y-114925000D03*
X155637500Y-115575000D03*
X155637500Y-116225000D03*
X161362500Y-116225000D03*
X161362500Y-115575000D03*
X161362500Y-114925000D03*
X161362500Y-114275000D03*
%TD*%
D20*
%TO.C,MOSFET1*%
X122190000Y-113250000D03*
D21*
X126000000Y-113250000D03*
X133620000Y-113250000D03*
X137430000Y-113250000D03*
%TD*%
D22*
%TO.C,TP2*%
X160625000Y-125525000D03*
%TD*%
D12*
%TO.C,J6*%
X169574200Y-84380000D03*
D13*
X165254200Y-82880000D03*
D14*
X165254200Y-85880000D03*
%TD*%
D22*
%TO.C,TP3*%
X152625000Y-125525000D03*
%TD*%
%TO.C,TP1*%
X156625000Y-125525000D03*
%TD*%
D18*
%TO.C,H2*%
X136075000Y-123075000D03*
%TD*%
D12*
%TO.C,J5*%
X169574200Y-122500000D03*
D13*
X165254200Y-121000000D03*
D14*
X165254200Y-124000000D03*
%TD*%
M02*
