%TF.GenerationSoftware,KiCad,Pcbnew,9.0.1-1.fc42*%
%TF.CreationDate,2025-05-01T02:21:56+08:00*%
%TF.ProjectId,discharge & time_delayforDCDC,64697363-6861-4726-9765-20262074696d,rev?*%
%TF.SameCoordinates,Original*%
%TF.FileFunction,Legend,Top*%
%TF.FilePolarity,Positive*%
%FSLAX46Y46*%
G04 Gerber Fmt 4.6, Leading zero omitted, Abs format (unit mm)*
G04 Created by KiCad (PCBNEW 9.0.1-1.fc42) date 2025-05-01 02:21:56*
%MOMM*%
%LPD*%
G01*
G04 APERTURE LIST*
%ADD10C,0.100000*%
%ADD11C,0.300000*%
%ADD12C,0.150000*%
%ADD13C,0.254000*%
%ADD14C,0.158750*%
%ADD15C,0.120000*%
%ADD16C,0.200000*%
%ADD17C,0.127000*%
%ADD18C,0.152400*%
G04 APERTURE END LIST*
D10*
X116553884Y-90241466D02*
X117315789Y-90241466D01*
X116934836Y-90622419D02*
X116934836Y-89860514D01*
X163303884Y-120991466D02*
X164065789Y-120991466D01*
X163684836Y-121372419D02*
X163684836Y-120610514D01*
X143913884Y-112326466D02*
X144675789Y-112326466D01*
X116303884Y-116491466D02*
X117065789Y-116491466D01*
X116684836Y-116872419D02*
X116684836Y-116110514D01*
X125553884Y-90241466D02*
X126315789Y-90241466D01*
X162303884Y-83372419D02*
X162303884Y-82372419D01*
X162303884Y-82372419D02*
X162875312Y-83372419D01*
X162875312Y-83372419D02*
X162875312Y-82372419D01*
X163922931Y-83277180D02*
X163875312Y-83324800D01*
X163875312Y-83324800D02*
X163732455Y-83372419D01*
X163732455Y-83372419D02*
X163637217Y-83372419D01*
X163637217Y-83372419D02*
X163494360Y-83324800D01*
X163494360Y-83324800D02*
X163399122Y-83229561D01*
X163399122Y-83229561D02*
X163351503Y-83134323D01*
X163351503Y-83134323D02*
X163303884Y-82943847D01*
X163303884Y-82943847D02*
X163303884Y-82800990D01*
X163303884Y-82800990D02*
X163351503Y-82610514D01*
X163351503Y-82610514D02*
X163399122Y-82515276D01*
X163399122Y-82515276D02*
X163494360Y-82420038D01*
X163494360Y-82420038D02*
X163637217Y-82372419D01*
X163637217Y-82372419D02*
X163732455Y-82372419D01*
X163732455Y-82372419D02*
X163875312Y-82420038D01*
X163875312Y-82420038D02*
X163922931Y-82467657D01*
X125303884Y-116491466D02*
X126065789Y-116491466D01*
D11*
X145838346Y-111385912D02*
X145838346Y-109885912D01*
X145838346Y-109885912D02*
X146195489Y-109885912D01*
X146195489Y-109885912D02*
X146409775Y-109957341D01*
X146409775Y-109957341D02*
X146552632Y-110100198D01*
X146552632Y-110100198D02*
X146624061Y-110243055D01*
X146624061Y-110243055D02*
X146695489Y-110528769D01*
X146695489Y-110528769D02*
X146695489Y-110743055D01*
X146695489Y-110743055D02*
X146624061Y-111028769D01*
X146624061Y-111028769D02*
X146552632Y-111171626D01*
X146552632Y-111171626D02*
X146409775Y-111314484D01*
X146409775Y-111314484D02*
X146195489Y-111385912D01*
X146195489Y-111385912D02*
X145838346Y-111385912D01*
X147338346Y-111385912D02*
X147338346Y-110385912D01*
X147338346Y-109885912D02*
X147266918Y-109957341D01*
X147266918Y-109957341D02*
X147338346Y-110028769D01*
X147338346Y-110028769D02*
X147409775Y-109957341D01*
X147409775Y-109957341D02*
X147338346Y-109885912D01*
X147338346Y-109885912D02*
X147338346Y-110028769D01*
X147981204Y-111314484D02*
X148124061Y-111385912D01*
X148124061Y-111385912D02*
X148409775Y-111385912D01*
X148409775Y-111385912D02*
X148552632Y-111314484D01*
X148552632Y-111314484D02*
X148624061Y-111171626D01*
X148624061Y-111171626D02*
X148624061Y-111100198D01*
X148624061Y-111100198D02*
X148552632Y-110957341D01*
X148552632Y-110957341D02*
X148409775Y-110885912D01*
X148409775Y-110885912D02*
X148195490Y-110885912D01*
X148195490Y-110885912D02*
X148052632Y-110814484D01*
X148052632Y-110814484D02*
X147981204Y-110671626D01*
X147981204Y-110671626D02*
X147981204Y-110600198D01*
X147981204Y-110600198D02*
X148052632Y-110457341D01*
X148052632Y-110457341D02*
X148195490Y-110385912D01*
X148195490Y-110385912D02*
X148409775Y-110385912D01*
X148409775Y-110385912D02*
X148552632Y-110457341D01*
X149909776Y-111314484D02*
X149766918Y-111385912D01*
X149766918Y-111385912D02*
X149481204Y-111385912D01*
X149481204Y-111385912D02*
X149338347Y-111314484D01*
X149338347Y-111314484D02*
X149266918Y-111243055D01*
X149266918Y-111243055D02*
X149195490Y-111100198D01*
X149195490Y-111100198D02*
X149195490Y-110671626D01*
X149195490Y-110671626D02*
X149266918Y-110528769D01*
X149266918Y-110528769D02*
X149338347Y-110457341D01*
X149338347Y-110457341D02*
X149481204Y-110385912D01*
X149481204Y-110385912D02*
X149766918Y-110385912D01*
X149766918Y-110385912D02*
X149909776Y-110457341D01*
X150552632Y-111385912D02*
X150552632Y-109885912D01*
X151195490Y-111385912D02*
X151195490Y-110600198D01*
X151195490Y-110600198D02*
X151124061Y-110457341D01*
X151124061Y-110457341D02*
X150981204Y-110385912D01*
X150981204Y-110385912D02*
X150766918Y-110385912D01*
X150766918Y-110385912D02*
X150624061Y-110457341D01*
X150624061Y-110457341D02*
X150552632Y-110528769D01*
X152552633Y-111385912D02*
X152552633Y-110600198D01*
X152552633Y-110600198D02*
X152481204Y-110457341D01*
X152481204Y-110457341D02*
X152338347Y-110385912D01*
X152338347Y-110385912D02*
X152052633Y-110385912D01*
X152052633Y-110385912D02*
X151909775Y-110457341D01*
X152552633Y-111314484D02*
X152409775Y-111385912D01*
X152409775Y-111385912D02*
X152052633Y-111385912D01*
X152052633Y-111385912D02*
X151909775Y-111314484D01*
X151909775Y-111314484D02*
X151838347Y-111171626D01*
X151838347Y-111171626D02*
X151838347Y-111028769D01*
X151838347Y-111028769D02*
X151909775Y-110885912D01*
X151909775Y-110885912D02*
X152052633Y-110814484D01*
X152052633Y-110814484D02*
X152409775Y-110814484D01*
X152409775Y-110814484D02*
X152552633Y-110743055D01*
X153266918Y-111385912D02*
X153266918Y-110385912D01*
X153266918Y-110671626D02*
X153338347Y-110528769D01*
X153338347Y-110528769D02*
X153409776Y-110457341D01*
X153409776Y-110457341D02*
X153552633Y-110385912D01*
X153552633Y-110385912D02*
X153695490Y-110385912D01*
X154838347Y-110385912D02*
X154838347Y-111600198D01*
X154838347Y-111600198D02*
X154766918Y-111743055D01*
X154766918Y-111743055D02*
X154695489Y-111814484D01*
X154695489Y-111814484D02*
X154552632Y-111885912D01*
X154552632Y-111885912D02*
X154338347Y-111885912D01*
X154338347Y-111885912D02*
X154195489Y-111814484D01*
X154838347Y-111314484D02*
X154695489Y-111385912D01*
X154695489Y-111385912D02*
X154409775Y-111385912D01*
X154409775Y-111385912D02*
X154266918Y-111314484D01*
X154266918Y-111314484D02*
X154195489Y-111243055D01*
X154195489Y-111243055D02*
X154124061Y-111100198D01*
X154124061Y-111100198D02*
X154124061Y-110671626D01*
X154124061Y-110671626D02*
X154195489Y-110528769D01*
X154195489Y-110528769D02*
X154266918Y-110457341D01*
X154266918Y-110457341D02*
X154409775Y-110385912D01*
X154409775Y-110385912D02*
X154695489Y-110385912D01*
X154695489Y-110385912D02*
X154838347Y-110457341D01*
X156124061Y-111314484D02*
X155981204Y-111385912D01*
X155981204Y-111385912D02*
X155695490Y-111385912D01*
X155695490Y-111385912D02*
X155552632Y-111314484D01*
X155552632Y-111314484D02*
X155481204Y-111171626D01*
X155481204Y-111171626D02*
X155481204Y-110600198D01*
X155481204Y-110600198D02*
X155552632Y-110457341D01*
X155552632Y-110457341D02*
X155695490Y-110385912D01*
X155695490Y-110385912D02*
X155981204Y-110385912D01*
X155981204Y-110385912D02*
X156124061Y-110457341D01*
X156124061Y-110457341D02*
X156195490Y-110600198D01*
X156195490Y-110600198D02*
X156195490Y-110743055D01*
X156195490Y-110743055D02*
X155481204Y-110885912D01*
X159195489Y-111385912D02*
X159124061Y-111385912D01*
X159124061Y-111385912D02*
X158981203Y-111314484D01*
X158981203Y-111314484D02*
X158766918Y-111100198D01*
X158766918Y-111100198D02*
X158409775Y-110671626D01*
X158409775Y-110671626D02*
X158266918Y-110457341D01*
X158266918Y-110457341D02*
X158195489Y-110243055D01*
X158195489Y-110243055D02*
X158195489Y-110100198D01*
X158195489Y-110100198D02*
X158266918Y-109957341D01*
X158266918Y-109957341D02*
X158409775Y-109885912D01*
X158409775Y-109885912D02*
X158481203Y-109885912D01*
X158481203Y-109885912D02*
X158624061Y-109957341D01*
X158624061Y-109957341D02*
X158695489Y-110100198D01*
X158695489Y-110100198D02*
X158695489Y-110171626D01*
X158695489Y-110171626D02*
X158624061Y-110314484D01*
X158624061Y-110314484D02*
X158552632Y-110385912D01*
X158552632Y-110385912D02*
X158124061Y-110671626D01*
X158124061Y-110671626D02*
X158052632Y-110743055D01*
X158052632Y-110743055D02*
X157981203Y-110885912D01*
X157981203Y-110885912D02*
X157981203Y-111100198D01*
X157981203Y-111100198D02*
X158052632Y-111243055D01*
X158052632Y-111243055D02*
X158124061Y-111314484D01*
X158124061Y-111314484D02*
X158266918Y-111385912D01*
X158266918Y-111385912D02*
X158481203Y-111385912D01*
X158481203Y-111385912D02*
X158624061Y-111314484D01*
X158624061Y-111314484D02*
X158695489Y-111243055D01*
X158695489Y-111243055D02*
X158909775Y-110957341D01*
X158909775Y-110957341D02*
X158981203Y-110743055D01*
X158981203Y-110743055D02*
X158981203Y-110600198D01*
X160981203Y-111385912D02*
X160981203Y-109885912D01*
X160981203Y-109885912D02*
X161338346Y-109885912D01*
X161338346Y-109885912D02*
X161552632Y-109957341D01*
X161552632Y-109957341D02*
X161695489Y-110100198D01*
X161695489Y-110100198D02*
X161766918Y-110243055D01*
X161766918Y-110243055D02*
X161838346Y-110528769D01*
X161838346Y-110528769D02*
X161838346Y-110743055D01*
X161838346Y-110743055D02*
X161766918Y-111028769D01*
X161766918Y-111028769D02*
X161695489Y-111171626D01*
X161695489Y-111171626D02*
X161552632Y-111314484D01*
X161552632Y-111314484D02*
X161338346Y-111385912D01*
X161338346Y-111385912D02*
X160981203Y-111385912D01*
X163338346Y-111243055D02*
X163266918Y-111314484D01*
X163266918Y-111314484D02*
X163052632Y-111385912D01*
X163052632Y-111385912D02*
X162909775Y-111385912D01*
X162909775Y-111385912D02*
X162695489Y-111314484D01*
X162695489Y-111314484D02*
X162552632Y-111171626D01*
X162552632Y-111171626D02*
X162481203Y-111028769D01*
X162481203Y-111028769D02*
X162409775Y-110743055D01*
X162409775Y-110743055D02*
X162409775Y-110528769D01*
X162409775Y-110528769D02*
X162481203Y-110243055D01*
X162481203Y-110243055D02*
X162552632Y-110100198D01*
X162552632Y-110100198D02*
X162695489Y-109957341D01*
X162695489Y-109957341D02*
X162909775Y-109885912D01*
X162909775Y-109885912D02*
X163052632Y-109885912D01*
X163052632Y-109885912D02*
X163266918Y-109957341D01*
X163266918Y-109957341D02*
X163338346Y-110028769D01*
X163981203Y-111385912D02*
X163981203Y-109885912D01*
X163981203Y-109885912D02*
X164338346Y-109885912D01*
X164338346Y-109885912D02*
X164552632Y-109957341D01*
X164552632Y-109957341D02*
X164695489Y-110100198D01*
X164695489Y-110100198D02*
X164766918Y-110243055D01*
X164766918Y-110243055D02*
X164838346Y-110528769D01*
X164838346Y-110528769D02*
X164838346Y-110743055D01*
X164838346Y-110743055D02*
X164766918Y-111028769D01*
X164766918Y-111028769D02*
X164695489Y-111171626D01*
X164695489Y-111171626D02*
X164552632Y-111314484D01*
X164552632Y-111314484D02*
X164338346Y-111385912D01*
X164338346Y-111385912D02*
X163981203Y-111385912D01*
X166338346Y-111243055D02*
X166266918Y-111314484D01*
X166266918Y-111314484D02*
X166052632Y-111385912D01*
X166052632Y-111385912D02*
X165909775Y-111385912D01*
X165909775Y-111385912D02*
X165695489Y-111314484D01*
X165695489Y-111314484D02*
X165552632Y-111171626D01*
X165552632Y-111171626D02*
X165481203Y-111028769D01*
X165481203Y-111028769D02*
X165409775Y-110743055D01*
X165409775Y-110743055D02*
X165409775Y-110528769D01*
X165409775Y-110528769D02*
X165481203Y-110243055D01*
X165481203Y-110243055D02*
X165552632Y-110100198D01*
X165552632Y-110100198D02*
X165695489Y-109957341D01*
X165695489Y-109957341D02*
X165909775Y-109885912D01*
X165909775Y-109885912D02*
X166052632Y-109885912D01*
X166052632Y-109885912D02*
X166266918Y-109957341D01*
X166266918Y-109957341D02*
X166338346Y-110028769D01*
X167409775Y-111957341D02*
X167338346Y-111885912D01*
X167338346Y-111885912D02*
X167195489Y-111671626D01*
X167195489Y-111671626D02*
X167124061Y-111528769D01*
X167124061Y-111528769D02*
X167052632Y-111314484D01*
X167052632Y-111314484D02*
X166981203Y-110957341D01*
X166981203Y-110957341D02*
X166981203Y-110671626D01*
X166981203Y-110671626D02*
X167052632Y-110314484D01*
X167052632Y-110314484D02*
X167124061Y-110100198D01*
X167124061Y-110100198D02*
X167195489Y-109957341D01*
X167195489Y-109957341D02*
X167338346Y-109743055D01*
X167338346Y-109743055D02*
X167409775Y-109671626D01*
X168624061Y-111385912D02*
X168624061Y-109885912D01*
X168624061Y-111314484D02*
X168481203Y-111385912D01*
X168481203Y-111385912D02*
X168195489Y-111385912D01*
X168195489Y-111385912D02*
X168052632Y-111314484D01*
X168052632Y-111314484D02*
X167981203Y-111243055D01*
X167981203Y-111243055D02*
X167909775Y-111100198D01*
X167909775Y-111100198D02*
X167909775Y-110671626D01*
X167909775Y-110671626D02*
X167981203Y-110528769D01*
X167981203Y-110528769D02*
X168052632Y-110457341D01*
X168052632Y-110457341D02*
X168195489Y-110385912D01*
X168195489Y-110385912D02*
X168481203Y-110385912D01*
X168481203Y-110385912D02*
X168624061Y-110457341D01*
X169909775Y-111314484D02*
X169766918Y-111385912D01*
X169766918Y-111385912D02*
X169481204Y-111385912D01*
X169481204Y-111385912D02*
X169338346Y-111314484D01*
X169338346Y-111314484D02*
X169266918Y-111171626D01*
X169266918Y-111171626D02*
X169266918Y-110600198D01*
X169266918Y-110600198D02*
X169338346Y-110457341D01*
X169338346Y-110457341D02*
X169481204Y-110385912D01*
X169481204Y-110385912D02*
X169766918Y-110385912D01*
X169766918Y-110385912D02*
X169909775Y-110457341D01*
X169909775Y-110457341D02*
X169981204Y-110600198D01*
X169981204Y-110600198D02*
X169981204Y-110743055D01*
X169981204Y-110743055D02*
X169266918Y-110885912D01*
X170838346Y-111385912D02*
X170695489Y-111314484D01*
X170695489Y-111314484D02*
X170624060Y-111171626D01*
X170624060Y-111171626D02*
X170624060Y-109885912D01*
X172052632Y-111385912D02*
X172052632Y-110600198D01*
X172052632Y-110600198D02*
X171981203Y-110457341D01*
X171981203Y-110457341D02*
X171838346Y-110385912D01*
X171838346Y-110385912D02*
X171552632Y-110385912D01*
X171552632Y-110385912D02*
X171409774Y-110457341D01*
X172052632Y-111314484D02*
X171909774Y-111385912D01*
X171909774Y-111385912D02*
X171552632Y-111385912D01*
X171552632Y-111385912D02*
X171409774Y-111314484D01*
X171409774Y-111314484D02*
X171338346Y-111171626D01*
X171338346Y-111171626D02*
X171338346Y-111028769D01*
X171338346Y-111028769D02*
X171409774Y-110885912D01*
X171409774Y-110885912D02*
X171552632Y-110814484D01*
X171552632Y-110814484D02*
X171909774Y-110814484D01*
X171909774Y-110814484D02*
X172052632Y-110743055D01*
X172624060Y-110385912D02*
X172981203Y-111385912D01*
X173338346Y-110385912D02*
X172981203Y-111385912D01*
X172981203Y-111385912D02*
X172838346Y-111743055D01*
X172838346Y-111743055D02*
X172766917Y-111814484D01*
X172766917Y-111814484D02*
X172624060Y-111885912D01*
X173766917Y-111957341D02*
X173838346Y-111885912D01*
X173838346Y-111885912D02*
X173981203Y-111671626D01*
X173981203Y-111671626D02*
X174052632Y-111528769D01*
X174052632Y-111528769D02*
X174124060Y-111314484D01*
X174124060Y-111314484D02*
X174195489Y-110957341D01*
X174195489Y-110957341D02*
X174195489Y-110671626D01*
X174195489Y-110671626D02*
X174124060Y-110314484D01*
X174124060Y-110314484D02*
X174052632Y-110100198D01*
X174052632Y-110100198D02*
X173981203Y-109957341D01*
X173981203Y-109957341D02*
X173838346Y-109743055D01*
X173838346Y-109743055D02*
X173766917Y-109671626D01*
X169838347Y-112300828D02*
X170338347Y-113800828D01*
X170338347Y-113800828D02*
X170838347Y-112300828D01*
X171266918Y-112443685D02*
X171338346Y-112372257D01*
X171338346Y-112372257D02*
X171481204Y-112300828D01*
X171481204Y-112300828D02*
X171838346Y-112300828D01*
X171838346Y-112300828D02*
X171981204Y-112372257D01*
X171981204Y-112372257D02*
X172052632Y-112443685D01*
X172052632Y-112443685D02*
X172124061Y-112586542D01*
X172124061Y-112586542D02*
X172124061Y-112729400D01*
X172124061Y-112729400D02*
X172052632Y-112943685D01*
X172052632Y-112943685D02*
X171195489Y-113800828D01*
X171195489Y-113800828D02*
X172124061Y-113800828D01*
X172766917Y-113657971D02*
X172838346Y-113729400D01*
X172838346Y-113729400D02*
X172766917Y-113800828D01*
X172766917Y-113800828D02*
X172695489Y-113729400D01*
X172695489Y-113729400D02*
X172766917Y-113657971D01*
X172766917Y-113657971D02*
X172766917Y-113800828D01*
X173766918Y-112300828D02*
X173909775Y-112300828D01*
X173909775Y-112300828D02*
X174052632Y-112372257D01*
X174052632Y-112372257D02*
X174124061Y-112443685D01*
X174124061Y-112443685D02*
X174195489Y-112586542D01*
X174195489Y-112586542D02*
X174266918Y-112872257D01*
X174266918Y-112872257D02*
X174266918Y-113229400D01*
X174266918Y-113229400D02*
X174195489Y-113515114D01*
X174195489Y-113515114D02*
X174124061Y-113657971D01*
X174124061Y-113657971D02*
X174052632Y-113729400D01*
X174052632Y-113729400D02*
X173909775Y-113800828D01*
X173909775Y-113800828D02*
X173766918Y-113800828D01*
X173766918Y-113800828D02*
X173624061Y-113729400D01*
X173624061Y-113729400D02*
X173552632Y-113657971D01*
X173552632Y-113657971D02*
X173481203Y-113515114D01*
X173481203Y-113515114D02*
X173409775Y-113229400D01*
X173409775Y-113229400D02*
X173409775Y-112872257D01*
X173409775Y-112872257D02*
X173481203Y-112586542D01*
X173481203Y-112586542D02*
X173552632Y-112443685D01*
X173552632Y-112443685D02*
X173624061Y-112372257D01*
X173624061Y-112372257D02*
X173766918Y-112300828D01*
D10*
X163303884Y-85991466D02*
X164065789Y-85991466D01*
X163684836Y-86372419D02*
X163684836Y-85610514D01*
X163303884Y-123991466D02*
X164065789Y-123991466D01*
D12*
X146486905Y-128224819D02*
X146486905Y-127224819D01*
X146486905Y-127224819D02*
X146725000Y-127224819D01*
X146725000Y-127224819D02*
X146867857Y-127272438D01*
X146867857Y-127272438D02*
X146963095Y-127367676D01*
X146963095Y-127367676D02*
X147010714Y-127462914D01*
X147010714Y-127462914D02*
X147058333Y-127653390D01*
X147058333Y-127653390D02*
X147058333Y-127796247D01*
X147058333Y-127796247D02*
X147010714Y-127986723D01*
X147010714Y-127986723D02*
X146963095Y-128081961D01*
X146963095Y-128081961D02*
X146867857Y-128177200D01*
X146867857Y-128177200D02*
X146725000Y-128224819D01*
X146725000Y-128224819D02*
X146486905Y-128224819D01*
X148010714Y-128224819D02*
X147439286Y-128224819D01*
X147725000Y-128224819D02*
X147725000Y-127224819D01*
X147725000Y-127224819D02*
X147629762Y-127367676D01*
X147629762Y-127367676D02*
X147534524Y-127462914D01*
X147534524Y-127462914D02*
X147439286Y-127510533D01*
D13*
X142812618Y-100974318D02*
X142812618Y-99704318D01*
X143538333Y-100974318D02*
X142994047Y-100248603D01*
X143538333Y-99704318D02*
X142812618Y-100430032D01*
X144747857Y-100974318D02*
X144022142Y-100974318D01*
X144384999Y-100974318D02*
X144384999Y-99704318D01*
X144384999Y-99704318D02*
X144264047Y-99885746D01*
X144264047Y-99885746D02*
X144143095Y-100006699D01*
X144143095Y-100006699D02*
X144022142Y-100067175D01*
X120926667Y-85624318D02*
X120926667Y-86531461D01*
X120926667Y-86531461D02*
X120866190Y-86712889D01*
X120866190Y-86712889D02*
X120745238Y-86833842D01*
X120745238Y-86833842D02*
X120563809Y-86894318D01*
X120563809Y-86894318D02*
X120442857Y-86894318D01*
X121410476Y-85624318D02*
X122196667Y-85624318D01*
X122196667Y-85624318D02*
X121773333Y-86108127D01*
X121773333Y-86108127D02*
X121954762Y-86108127D01*
X121954762Y-86108127D02*
X122075714Y-86168603D01*
X122075714Y-86168603D02*
X122136190Y-86229080D01*
X122136190Y-86229080D02*
X122196667Y-86350032D01*
X122196667Y-86350032D02*
X122196667Y-86652413D01*
X122196667Y-86652413D02*
X122136190Y-86773365D01*
X122136190Y-86773365D02*
X122075714Y-86833842D01*
X122075714Y-86833842D02*
X121954762Y-86894318D01*
X121954762Y-86894318D02*
X121591905Y-86894318D01*
X121591905Y-86894318D02*
X121470952Y-86833842D01*
X121470952Y-86833842D02*
X121410476Y-86773365D01*
D12*
X146939819Y-118290238D02*
X146463628Y-118623571D01*
X146939819Y-118861666D02*
X145939819Y-118861666D01*
X145939819Y-118861666D02*
X145939819Y-118480714D01*
X145939819Y-118480714D02*
X145987438Y-118385476D01*
X145987438Y-118385476D02*
X146035057Y-118337857D01*
X146035057Y-118337857D02*
X146130295Y-118290238D01*
X146130295Y-118290238D02*
X146273152Y-118290238D01*
X146273152Y-118290238D02*
X146368390Y-118337857D01*
X146368390Y-118337857D02*
X146416009Y-118385476D01*
X146416009Y-118385476D02*
X146463628Y-118480714D01*
X146463628Y-118480714D02*
X146463628Y-118861666D01*
X145939819Y-118004523D02*
X146939819Y-117671190D01*
X146939819Y-117671190D02*
X145939819Y-117337857D01*
X146939819Y-116480714D02*
X146939819Y-117052142D01*
X146939819Y-116766428D02*
X145939819Y-116766428D01*
X145939819Y-116766428D02*
X146082676Y-116861666D01*
X146082676Y-116861666D02*
X146177914Y-116956904D01*
X146177914Y-116956904D02*
X146225533Y-117052142D01*
X160403333Y-121024819D02*
X160070000Y-120548628D01*
X159831905Y-121024819D02*
X159831905Y-120024819D01*
X159831905Y-120024819D02*
X160212857Y-120024819D01*
X160212857Y-120024819D02*
X160308095Y-120072438D01*
X160308095Y-120072438D02*
X160355714Y-120120057D01*
X160355714Y-120120057D02*
X160403333Y-120215295D01*
X160403333Y-120215295D02*
X160403333Y-120358152D01*
X160403333Y-120358152D02*
X160355714Y-120453390D01*
X160355714Y-120453390D02*
X160308095Y-120501009D01*
X160308095Y-120501009D02*
X160212857Y-120548628D01*
X160212857Y-120548628D02*
X159831905Y-120548628D01*
X160784286Y-120120057D02*
X160831905Y-120072438D01*
X160831905Y-120072438D02*
X160927143Y-120024819D01*
X160927143Y-120024819D02*
X161165238Y-120024819D01*
X161165238Y-120024819D02*
X161260476Y-120072438D01*
X161260476Y-120072438D02*
X161308095Y-120120057D01*
X161308095Y-120120057D02*
X161355714Y-120215295D01*
X161355714Y-120215295D02*
X161355714Y-120310533D01*
X161355714Y-120310533D02*
X161308095Y-120453390D01*
X161308095Y-120453390D02*
X160736667Y-121024819D01*
X160736667Y-121024819D02*
X161355714Y-121024819D01*
X159159580Y-120726666D02*
X159207200Y-120774285D01*
X159207200Y-120774285D02*
X159254819Y-120917142D01*
X159254819Y-120917142D02*
X159254819Y-121012380D01*
X159254819Y-121012380D02*
X159207200Y-121155237D01*
X159207200Y-121155237D02*
X159111961Y-121250475D01*
X159111961Y-121250475D02*
X159016723Y-121298094D01*
X159016723Y-121298094D02*
X158826247Y-121345713D01*
X158826247Y-121345713D02*
X158683390Y-121345713D01*
X158683390Y-121345713D02*
X158492914Y-121298094D01*
X158492914Y-121298094D02*
X158397676Y-121250475D01*
X158397676Y-121250475D02*
X158302438Y-121155237D01*
X158302438Y-121155237D02*
X158254819Y-121012380D01*
X158254819Y-121012380D02*
X158254819Y-120917142D01*
X158254819Y-120917142D02*
X158302438Y-120774285D01*
X158302438Y-120774285D02*
X158350057Y-120726666D01*
X159254819Y-119774285D02*
X159254819Y-120345713D01*
X159254819Y-120059999D02*
X158254819Y-120059999D01*
X158254819Y-120059999D02*
X158397676Y-120155237D01*
X158397676Y-120155237D02*
X158492914Y-120250475D01*
X158492914Y-120250475D02*
X158540533Y-120345713D01*
X160403333Y-118024819D02*
X160070000Y-117548628D01*
X159831905Y-118024819D02*
X159831905Y-117024819D01*
X159831905Y-117024819D02*
X160212857Y-117024819D01*
X160212857Y-117024819D02*
X160308095Y-117072438D01*
X160308095Y-117072438D02*
X160355714Y-117120057D01*
X160355714Y-117120057D02*
X160403333Y-117215295D01*
X160403333Y-117215295D02*
X160403333Y-117358152D01*
X160403333Y-117358152D02*
X160355714Y-117453390D01*
X160355714Y-117453390D02*
X160308095Y-117501009D01*
X160308095Y-117501009D02*
X160212857Y-117548628D01*
X160212857Y-117548628D02*
X159831905Y-117548628D01*
X161355714Y-118024819D02*
X160784286Y-118024819D01*
X161070000Y-118024819D02*
X161070000Y-117024819D01*
X161070000Y-117024819D02*
X160974762Y-117167676D01*
X160974762Y-117167676D02*
X160879524Y-117262914D01*
X160879524Y-117262914D02*
X160784286Y-117310533D01*
D13*
X120726667Y-119304318D02*
X120726667Y-120211461D01*
X120726667Y-120211461D02*
X120666190Y-120392889D01*
X120666190Y-120392889D02*
X120545238Y-120513842D01*
X120545238Y-120513842D02*
X120363809Y-120574318D01*
X120363809Y-120574318D02*
X120242857Y-120574318D01*
X121996667Y-120574318D02*
X121270952Y-120574318D01*
X121633809Y-120574318D02*
X121633809Y-119304318D01*
X121633809Y-119304318D02*
X121512857Y-119485746D01*
X121512857Y-119485746D02*
X121391905Y-119606699D01*
X121391905Y-119606699D02*
X121270952Y-119667175D01*
D12*
X157738095Y-112254819D02*
X157738095Y-113064342D01*
X157738095Y-113064342D02*
X157785714Y-113159580D01*
X157785714Y-113159580D02*
X157833333Y-113207200D01*
X157833333Y-113207200D02*
X157928571Y-113254819D01*
X157928571Y-113254819D02*
X158119047Y-113254819D01*
X158119047Y-113254819D02*
X158214285Y-113207200D01*
X158214285Y-113207200D02*
X158261904Y-113159580D01*
X158261904Y-113159580D02*
X158309523Y-113064342D01*
X158309523Y-113064342D02*
X158309523Y-112254819D01*
X159309523Y-113254819D02*
X158738095Y-113254819D01*
X159023809Y-113254819D02*
X159023809Y-112254819D01*
X159023809Y-112254819D02*
X158928571Y-112397676D01*
X158928571Y-112397676D02*
X158833333Y-112492914D01*
X158833333Y-112492914D02*
X158738095Y-112540533D01*
X123928571Y-111704819D02*
X123928571Y-110704819D01*
X123928571Y-110704819D02*
X124261904Y-111419104D01*
X124261904Y-111419104D02*
X124595237Y-110704819D01*
X124595237Y-110704819D02*
X124595237Y-111704819D01*
X125261904Y-110704819D02*
X125452380Y-110704819D01*
X125452380Y-110704819D02*
X125547618Y-110752438D01*
X125547618Y-110752438D02*
X125642856Y-110847676D01*
X125642856Y-110847676D02*
X125690475Y-111038152D01*
X125690475Y-111038152D02*
X125690475Y-111371485D01*
X125690475Y-111371485D02*
X125642856Y-111561961D01*
X125642856Y-111561961D02*
X125547618Y-111657200D01*
X125547618Y-111657200D02*
X125452380Y-111704819D01*
X125452380Y-111704819D02*
X125261904Y-111704819D01*
X125261904Y-111704819D02*
X125166666Y-111657200D01*
X125166666Y-111657200D02*
X125071428Y-111561961D01*
X125071428Y-111561961D02*
X125023809Y-111371485D01*
X125023809Y-111371485D02*
X125023809Y-111038152D01*
X125023809Y-111038152D02*
X125071428Y-110847676D01*
X125071428Y-110847676D02*
X125166666Y-110752438D01*
X125166666Y-110752438D02*
X125261904Y-110704819D01*
X126071428Y-111657200D02*
X126214285Y-111704819D01*
X126214285Y-111704819D02*
X126452380Y-111704819D01*
X126452380Y-111704819D02*
X126547618Y-111657200D01*
X126547618Y-111657200D02*
X126595237Y-111609580D01*
X126595237Y-111609580D02*
X126642856Y-111514342D01*
X126642856Y-111514342D02*
X126642856Y-111419104D01*
X126642856Y-111419104D02*
X126595237Y-111323866D01*
X126595237Y-111323866D02*
X126547618Y-111276247D01*
X126547618Y-111276247D02*
X126452380Y-111228628D01*
X126452380Y-111228628D02*
X126261904Y-111181009D01*
X126261904Y-111181009D02*
X126166666Y-111133390D01*
X126166666Y-111133390D02*
X126119047Y-111085771D01*
X126119047Y-111085771D02*
X126071428Y-110990533D01*
X126071428Y-110990533D02*
X126071428Y-110895295D01*
X126071428Y-110895295D02*
X126119047Y-110800057D01*
X126119047Y-110800057D02*
X126166666Y-110752438D01*
X126166666Y-110752438D02*
X126261904Y-110704819D01*
X126261904Y-110704819D02*
X126499999Y-110704819D01*
X126499999Y-110704819D02*
X126642856Y-110752438D01*
X127404761Y-111181009D02*
X127071428Y-111181009D01*
X127071428Y-111704819D02*
X127071428Y-110704819D01*
X127071428Y-110704819D02*
X127547618Y-110704819D01*
X127928571Y-111181009D02*
X128261904Y-111181009D01*
X128404761Y-111704819D02*
X127928571Y-111704819D01*
X127928571Y-111704819D02*
X127928571Y-110704819D01*
X127928571Y-110704819D02*
X128404761Y-110704819D01*
X128690476Y-110704819D02*
X129261904Y-110704819D01*
X128976190Y-111704819D02*
X128976190Y-110704819D01*
X130119047Y-111704819D02*
X129547619Y-111704819D01*
X129833333Y-111704819D02*
X129833333Y-110704819D01*
X129833333Y-110704819D02*
X129738095Y-110847676D01*
X129738095Y-110847676D02*
X129642857Y-110942914D01*
X129642857Y-110942914D02*
X129547619Y-110990533D01*
D14*
X159566666Y-127084271D02*
X159808571Y-127084271D01*
X159808571Y-127084271D02*
X159929523Y-127144747D01*
X159929523Y-127144747D02*
X160050476Y-127265699D01*
X160050476Y-127265699D02*
X160110952Y-127507604D01*
X160110952Y-127507604D02*
X160110952Y-127930937D01*
X160110952Y-127930937D02*
X160050476Y-128172842D01*
X160050476Y-128172842D02*
X159929523Y-128293795D01*
X159929523Y-128293795D02*
X159808571Y-128354271D01*
X159808571Y-128354271D02*
X159566666Y-128354271D01*
X159566666Y-128354271D02*
X159445714Y-128293795D01*
X159445714Y-128293795D02*
X159324761Y-128172842D01*
X159324761Y-128172842D02*
X159264285Y-127930937D01*
X159264285Y-127930937D02*
X159264285Y-127507604D01*
X159264285Y-127507604D02*
X159324761Y-127265699D01*
X159324761Y-127265699D02*
X159445714Y-127144747D01*
X159445714Y-127144747D02*
X159566666Y-127084271D01*
X161199523Y-127507604D02*
X161199523Y-128354271D01*
X160655237Y-127507604D02*
X160655237Y-128172842D01*
X160655237Y-128172842D02*
X160715714Y-128293795D01*
X160715714Y-128293795D02*
X160836666Y-128354271D01*
X160836666Y-128354271D02*
X161018095Y-128354271D01*
X161018095Y-128354271D02*
X161139047Y-128293795D01*
X161139047Y-128293795D02*
X161199523Y-128233318D01*
X161622857Y-127507604D02*
X162106666Y-127507604D01*
X161804285Y-127084271D02*
X161804285Y-128172842D01*
X161804285Y-128172842D02*
X161864762Y-128293795D01*
X161864762Y-128293795D02*
X161985714Y-128354271D01*
X161985714Y-128354271D02*
X162106666Y-128354271D01*
D13*
X166308518Y-85053332D02*
X167215661Y-85053332D01*
X167215661Y-85053332D02*
X167397089Y-85113809D01*
X167397089Y-85113809D02*
X167518042Y-85234761D01*
X167518042Y-85234761D02*
X167578518Y-85416190D01*
X167578518Y-85416190D02*
X167578518Y-85537142D01*
X166308518Y-83904285D02*
X166308518Y-84146190D01*
X166308518Y-84146190D02*
X166368994Y-84267142D01*
X166368994Y-84267142D02*
X166429470Y-84327618D01*
X166429470Y-84327618D02*
X166610899Y-84448571D01*
X166610899Y-84448571D02*
X166852803Y-84509047D01*
X166852803Y-84509047D02*
X167336613Y-84509047D01*
X167336613Y-84509047D02*
X167457565Y-84448571D01*
X167457565Y-84448571D02*
X167518042Y-84388094D01*
X167518042Y-84388094D02*
X167578518Y-84267142D01*
X167578518Y-84267142D02*
X167578518Y-84025237D01*
X167578518Y-84025237D02*
X167518042Y-83904285D01*
X167518042Y-83904285D02*
X167457565Y-83843809D01*
X167457565Y-83843809D02*
X167336613Y-83783332D01*
X167336613Y-83783332D02*
X167034232Y-83783332D01*
X167034232Y-83783332D02*
X166913280Y-83843809D01*
X166913280Y-83843809D02*
X166852803Y-83904285D01*
X166852803Y-83904285D02*
X166792327Y-84025237D01*
X166792327Y-84025237D02*
X166792327Y-84267142D01*
X166792327Y-84267142D02*
X166852803Y-84388094D01*
X166852803Y-84388094D02*
X166913280Y-84448571D01*
X166913280Y-84448571D02*
X167034232Y-84509047D01*
D12*
X152110953Y-128354726D02*
X151687619Y-127749964D01*
X151385238Y-128354726D02*
X151385238Y-127084726D01*
X151385238Y-127084726D02*
X151869048Y-127084726D01*
X151869048Y-127084726D02*
X151990000Y-127145202D01*
X151990000Y-127145202D02*
X152050477Y-127205678D01*
X152050477Y-127205678D02*
X152110953Y-127326630D01*
X152110953Y-127326630D02*
X152110953Y-127508059D01*
X152110953Y-127508059D02*
X152050477Y-127629011D01*
X152050477Y-127629011D02*
X151990000Y-127689488D01*
X151990000Y-127689488D02*
X151869048Y-127749964D01*
X151869048Y-127749964D02*
X151385238Y-127749964D01*
X153139048Y-128294250D02*
X153018096Y-128354726D01*
X153018096Y-128354726D02*
X152776191Y-128354726D01*
X152776191Y-128354726D02*
X152655238Y-128294250D01*
X152655238Y-128294250D02*
X152594762Y-128173297D01*
X152594762Y-128173297D02*
X152594762Y-127689488D01*
X152594762Y-127689488D02*
X152655238Y-127568535D01*
X152655238Y-127568535D02*
X152776191Y-127508059D01*
X152776191Y-127508059D02*
X153018096Y-127508059D01*
X153018096Y-127508059D02*
X153139048Y-127568535D01*
X153139048Y-127568535D02*
X153199524Y-127689488D01*
X153199524Y-127689488D02*
X153199524Y-127810440D01*
X153199524Y-127810440D02*
X152594762Y-127931392D01*
X153562381Y-127508059D02*
X154046190Y-127508059D01*
X153743809Y-128354726D02*
X153743809Y-127266154D01*
X153743809Y-127266154D02*
X153804286Y-127145202D01*
X153804286Y-127145202D02*
X153925238Y-127084726D01*
X153925238Y-127084726D02*
X154046190Y-127084726D01*
X156383095Y-128354726D02*
X155959761Y-127749964D01*
X155657380Y-128354726D02*
X155657380Y-127084726D01*
X155657380Y-127084726D02*
X156141190Y-127084726D01*
X156141190Y-127084726D02*
X156262142Y-127145202D01*
X156262142Y-127145202D02*
X156322619Y-127205678D01*
X156322619Y-127205678D02*
X156383095Y-127326630D01*
X156383095Y-127326630D02*
X156383095Y-127508059D01*
X156383095Y-127508059D02*
X156322619Y-127629011D01*
X156322619Y-127629011D02*
X156262142Y-127689488D01*
X156262142Y-127689488D02*
X156141190Y-127749964D01*
X156141190Y-127749964D02*
X155657380Y-127749964D01*
X157653095Y-128233773D02*
X157592619Y-128294250D01*
X157592619Y-128294250D02*
X157411190Y-128354726D01*
X157411190Y-128354726D02*
X157290238Y-128354726D01*
X157290238Y-128354726D02*
X157108809Y-128294250D01*
X157108809Y-128294250D02*
X156987857Y-128173297D01*
X156987857Y-128173297D02*
X156927380Y-128052345D01*
X156927380Y-128052345D02*
X156866904Y-127810440D01*
X156866904Y-127810440D02*
X156866904Y-127629011D01*
X156866904Y-127629011D02*
X156927380Y-127387107D01*
X156927380Y-127387107D02*
X156987857Y-127266154D01*
X156987857Y-127266154D02*
X157108809Y-127145202D01*
X157108809Y-127145202D02*
X157290238Y-127084726D01*
X157290238Y-127084726D02*
X157411190Y-127084726D01*
X157411190Y-127084726D02*
X157592619Y-127145202D01*
X157592619Y-127145202D02*
X157653095Y-127205678D01*
D13*
X166378518Y-122923332D02*
X167285661Y-122923332D01*
X167285661Y-122923332D02*
X167467089Y-122983809D01*
X167467089Y-122983809D02*
X167588042Y-123104761D01*
X167588042Y-123104761D02*
X167648518Y-123286190D01*
X167648518Y-123286190D02*
X167648518Y-123407142D01*
X166378518Y-121713809D02*
X166378518Y-122318571D01*
X166378518Y-122318571D02*
X166983280Y-122379047D01*
X166983280Y-122379047D02*
X166922803Y-122318571D01*
X166922803Y-122318571D02*
X166862327Y-122197618D01*
X166862327Y-122197618D02*
X166862327Y-121895237D01*
X166862327Y-121895237D02*
X166922803Y-121774285D01*
X166922803Y-121774285D02*
X166983280Y-121713809D01*
X166983280Y-121713809D02*
X167104232Y-121653332D01*
X167104232Y-121653332D02*
X167406613Y-121653332D01*
X167406613Y-121653332D02*
X167527565Y-121713809D01*
X167527565Y-121713809D02*
X167588042Y-121774285D01*
X167588042Y-121774285D02*
X167648518Y-121895237D01*
X167648518Y-121895237D02*
X167648518Y-122197618D01*
X167648518Y-122197618D02*
X167588042Y-122318571D01*
X167588042Y-122318571D02*
X167527565Y-122379047D01*
D15*
%TO.C,D1*%
X150735000Y-123620000D02*
X145225000Y-123620000D01*
X150735000Y-126920000D02*
X145225000Y-126920000D01*
X150735000Y-126920000D02*
X150735000Y-123620000D01*
D16*
%TO.C,K1*%
X112950000Y-100400000D02*
X112950000Y-100400000D01*
X112950000Y-100400000D02*
X112950000Y-100400000D01*
X113050000Y-100400000D02*
X113050000Y-100400000D01*
X114550000Y-92500000D02*
X114550000Y-108300000D01*
X114550000Y-108300000D02*
X174550000Y-108300000D01*
X174550000Y-92500000D02*
X114550000Y-92500000D01*
X174550000Y-108300000D02*
X174550000Y-92500000D01*
X112950000Y-100400000D02*
G75*
G02*
X113050000Y-100400000I50000J0D01*
G01*
X113050000Y-100400000D02*
G75*
G02*
X112950000Y-100400000I-50000J0D01*
G01*
X113050000Y-100400000D02*
G75*
G02*
X112950000Y-100400000I-50000J0D01*
G01*
D17*
%TO.C,J3*%
X112150000Y-87820000D02*
X113150000Y-88320000D01*
X112150000Y-88820000D02*
X112150000Y-87820000D01*
X113150000Y-88320000D02*
X112150000Y-88820000D01*
X113525000Y-78910000D02*
X129175000Y-78910000D01*
X113525000Y-88810000D02*
X113525000Y-78910000D01*
X129175000Y-78910000D02*
X129175000Y-88810000D01*
D15*
%TO.C,RV1*%
X143610000Y-112835000D02*
X143610000Y-122585000D01*
X143610000Y-112835000D02*
X153360000Y-112835000D01*
X143610000Y-122585000D02*
X153360000Y-122585000D01*
X153360000Y-112835000D02*
X153360000Y-122585000D01*
%TO.C,R2*%
X160315276Y-121477500D02*
X160824724Y-121477500D01*
X160315276Y-122522500D02*
X160824724Y-122522500D01*
%TO.C,C1*%
X155140000Y-119848748D02*
X155140000Y-121271252D01*
X157860000Y-119848748D02*
X157860000Y-121271252D01*
%TO.C,R1*%
X160315276Y-118477500D02*
X160824724Y-118477500D01*
X160315276Y-119522500D02*
X160824724Y-119522500D01*
D17*
%TO.C,J1*%
X113325000Y-127410000D02*
X113325000Y-117510000D01*
X128975000Y-117510000D02*
X128975000Y-127410000D01*
X128975000Y-127410000D02*
X113325000Y-127410000D01*
X129350000Y-118000000D02*
X130350000Y-117500000D01*
X130350000Y-117500000D02*
X130350000Y-118500000D01*
X130350000Y-118500000D02*
X129350000Y-118000000D01*
D15*
%TO.C,U1*%
X158500000Y-113640000D02*
X156300000Y-113640000D01*
X158500000Y-113640000D02*
X160700000Y-113640000D01*
X158500000Y-116860000D02*
X156300000Y-116860000D01*
X158500000Y-116860000D02*
X160700000Y-116860000D01*
X155600000Y-113815000D02*
X155360000Y-113485000D01*
X155840000Y-113485000D01*
X155600000Y-113815000D01*
G36*
X155600000Y-113815000D02*
G01*
X155360000Y-113485000D01*
X155840000Y-113485000D01*
X155600000Y-113815000D01*
G37*
D18*
%TO.C,MOSFET1*%
X119726200Y-110011400D02*
X139893800Y-110011400D01*
X119726200Y-115294600D02*
X119726200Y-110011400D01*
X139893800Y-110011400D02*
X139893800Y-115294600D01*
X139893800Y-115294600D02*
X119726200Y-115294600D01*
X118151400Y-113250000D02*
G75*
G02*
X117745000Y-113250000I-203200J0D01*
G01*
X117745000Y-113250000D02*
G75*
G02*
X118151400Y-113250000I203200J0D01*
G01*
D15*
%TO.C,TP2*%
X161575000Y-125525000D02*
G75*
G02*
X159675000Y-125525000I-950000J0D01*
G01*
X159675000Y-125525000D02*
G75*
G02*
X161575000Y-125525000I950000J0D01*
G01*
D17*
%TO.C,J6*%
X164754200Y-78180000D02*
X165754200Y-78180000D01*
X164764200Y-79555000D02*
X174664200Y-79555000D01*
X165254200Y-79180000D02*
X164754200Y-78180000D01*
X165754200Y-78180000D02*
X165254200Y-79180000D01*
X174664200Y-79555000D02*
X174664200Y-89205000D01*
X174664200Y-89205000D02*
X164764200Y-89205000D01*
D15*
%TO.C,TP3*%
X153575000Y-125525000D02*
G75*
G02*
X151675000Y-125525000I-950000J0D01*
G01*
X151675000Y-125525000D02*
G75*
G02*
X153575000Y-125525000I950000J0D01*
G01*
%TO.C,TP1*%
X157575000Y-125525000D02*
G75*
G02*
X155675000Y-125525000I-950000J0D01*
G01*
X155675000Y-125525000D02*
G75*
G02*
X157575000Y-125525000I950000J0D01*
G01*
D17*
%TO.C,J5*%
X164754200Y-116300000D02*
X165754200Y-116300000D01*
X164764200Y-117675000D02*
X174664200Y-117675000D01*
X165254200Y-117300000D02*
X164754200Y-116300000D01*
X165754200Y-116300000D02*
X165254200Y-117300000D01*
X174664200Y-117675000D02*
X174664200Y-127325000D01*
X174664200Y-127325000D02*
X164764200Y-127325000D01*
%TD*%
M02*
