M48
; DRILL file {KiCad 9.0.1-1.fc42} date 2025-04-27T23:47:57+0800
; FORMAT={-:-/ absolute / metric / decimal}
; #@! TF.CreationDate,2025-04-27T23:47:57+08:00
; #@! TF.GenerationSoftware,Kicad,Pcbnew,9.0.1-1.fc42
; #@! TF.FileFunction,Plated,1,2,PTH
FMAT,2
METRIC
; #@! TA.AperFunction,Plated,PTH,ViaDrill
T1C0.300
; #@! TA.AperFunction,Plated,PTH,ComponentDrill
T2C0.700
; #@! TA.AperFunction,Plated,PTH,ComponentDrill
T3C0.800
; #@! TA.AperFunction,Plated,PTH,ComponentDrill
T4C1.020
; #@! TA.AperFunction,Plated,PTH,ComponentDrill
T5C1.100
; #@! TA.AperFunction,Plated,PTH,ComponentDrill
T6C1.550
%
G90
G05
T1
X158.75Y-117.4
T2
X152.625Y-125.525
X156.625Y-125.525
X160.625Y-125.525
T3
X148.5Y-115.17
X148.5Y-120.25
X151.04Y-117.71
T4
X116.65Y-118.0
X116.85Y-88.32
X119.65Y-118.0
X119.85Y-88.32
X122.65Y-118.0
X122.85Y-88.32
X125.65Y-118.0
X125.85Y-88.32
X165.254Y-82.88
X165.254Y-85.88
X165.254Y-121.0
X165.254Y-124.0
T5
X119.15Y-100.4
X144.55Y-95.3
X144.55Y-105.5
X169.95Y-100.4
T6
X122.19Y-113.25
X126.0Y-113.25
X133.62Y-113.25
X137.43Y-113.25
M30
